<?xml version="1.0" encoding="utf-8"?>
<!-- Generator: Adobe Illustrator 27.0.0, SVG Export Plug-In . SVG Version: 6.00 Build 0)  -->
<svg version="1.1" id="Capa_1" xmlns="http://www.w3.org/2000/svg" xmlns:xlink="http://www.w3.org/1999/xlink" x="0px" y="0px"
	 viewBox="0 0 250.3 116.3" style="enable-background:new 0 0 250.3 116.3;" xml:space="preserve">
<style type="text/css">
	.st0{fill:#FFFFFF;}
	.st1{fill:#20535F;}
	.st2{fill:#088484;}
	.st3{fill:#399D9D;}
	.st4{fill:#B1D6D4;}
</style>
<g>
	<g>
		<g>
			<path class="st0" d="M7.3,61.1c-0.4-0.3-1-0.6-1.6-0.7c-0.2,0-0.3,0-0.5-0.1c-0.2,0-0.3,0-0.4,0H0V72h1.7v-4.2h3
				c0.1,0,0.2,0,0.4,0c0.2,0,0.3,0,0.5,0c0.7-0.1,1.2-0.3,1.6-0.7c0.4-0.3,0.8-0.8,1-1.3s0.3-1.1,0.3-1.7s-0.1-1.2-0.3-1.7
				C8,61.8,7.7,61.4,7.3,61.1z M6.7,64.9c-0.1,0.3-0.2,0.5-0.5,0.8c-0.2,0.2-0.5,0.4-0.8,0.5c-0.1,0-0.2,0-0.4,0.1
				c-0.1,0-0.3,0-0.4,0h-3V62h3c0.1,0,0.2,0,0.4,0c0.1,0,0.3,0,0.4,0.1c0.3,0.1,0.6,0.2,0.8,0.5c0.2,0.2,0.4,0.5,0.5,0.8
				s0.1,0.6,0.1,0.9C6.8,64.4,6.8,64.6,6.7,64.9z"/>
			<path class="st0" d="M13,60.3L9.2,72H11l0.9-2.6h4.8l0.9,2.6h1.8l-3.8-11.7H13z M12.3,67.8l1.9-5.8l1.9,5.8H12.3z"/>
			<path class="st0" d="M29.1,66.5c0.5-0.7,0.7-1.5,0.7-2.4c0-0.6-0.1-1.2-0.3-1.7c-0.2-0.5-0.5-1-1-1.3c-0.4-0.3-1-0.6-1.6-0.7
				c-0.2,0-0.3,0-0.5-0.1c-0.2,0-0.3,0-0.4,0h-4.7V72H23v-4.2h3.1l2,4.2H30l-2.2-4.5C28.4,67.3,28.8,66.9,29.1,66.5z M23,61.9h3
				c0.1,0,0.2,0,0.4,0c0.1,0,0.3,0,0.4,0.1c0.3,0.1,0.6,0.2,0.8,0.5c0.2,0.2,0.4,0.5,0.5,0.8s0.1,0.6,0.1,0.9c0,0.3,0,0.6-0.1,0.9
				s-0.2,0.5-0.5,0.8c-0.2,0.2-0.5,0.4-0.8,0.5c-0.1,0-0.2,0-0.4,0.1c-0.1,0-0.3,0-0.4,0h-3V61.9z"/>
			<path class="st0" d="M35.7,60.3L31.9,72h1.8l0.9-2.6h4.8l0.9,2.6H42l-3.8-11.7H35.7z M35,67.8l1.9-5.8l1.9,5.8H35z"/>
			<path class="st0" d="M51.4,66.4c-0.3-0.2-0.7-0.4-1-0.5s-0.7-0.2-0.9-0.3L47.3,65c-0.3-0.1-0.6-0.2-0.8-0.3
				c-0.3-0.1-0.5-0.3-0.7-0.5s-0.3-0.5-0.3-0.8s0.1-0.6,0.3-0.9s0.5-0.5,0.9-0.6s0.8-0.2,1.2-0.2s0.9,0.1,1.3,0.3
				c0.4,0.2,0.7,0.4,1,0.7s0.4,0.7,0.5,1.1l1.8-0.3c-0.2-0.7-0.4-1.3-0.9-1.8c-0.4-0.5-0.9-0.9-1.6-1.2c-0.6-0.3-1.3-0.4-2.1-0.4
				s-1.5,0.1-2.1,0.4s-1.1,0.6-1.5,1.1s-0.6,1.1-0.6,1.8c0,0.5,0.1,0.9,0.2,1.2c0.2,0.3,0.4,0.6,0.6,0.8c0.3,0.2,0.5,0.4,0.8,0.5
				s0.6,0.3,0.9,0.3l3,0.9c0.2,0.1,0.4,0.1,0.6,0.2c0.2,0.1,0.3,0.2,0.5,0.3c0.1,0.1,0.2,0.3,0.3,0.4c0.1,0.2,0.1,0.3,0.1,0.6
				c0,0.4-0.1,0.7-0.4,1c-0.2,0.3-0.6,0.5-1,0.6s-0.8,0.2-1.3,0.2c-0.8,0-1.4-0.2-2-0.6s-0.9-1-1.1-1.7l-1.8,0.3
				c0.1,0.7,0.4,1.4,0.8,1.9c0.4,0.5,1,1,1.7,1.2c0.7,0.3,1.4,0.4,2.3,0.4c0.6,0,1.2-0.1,1.7-0.2c0.5-0.2,1-0.4,1.4-0.7
				c0.4-0.3,0.7-0.7,1-1.1c0.2-0.4,0.4-1,0.4-1.6s-0.1-1-0.3-1.4C52,66.9,51.8,66.6,51.4,66.4z"/>
			<path class="st0" d="M62.9,60.8c-0.8-0.5-1.8-0.8-3-0.8s-2.2,0.3-3,0.8S55.4,62,55,62.9s-0.7,2-0.7,3.2s0.2,2.3,0.7,3.2
				c0.4,0.9,1.1,1.6,1.9,2.1c0.8,0.5,1.8,0.8,3,0.8s2.2-0.3,3-0.8s1.5-1.2,1.9-2.1s0.7-2,0.7-3.2s-0.2-2.3-0.7-3.2
				C64.3,62.1,63.7,61.4,62.9,60.8z M63.2,68.5c-0.3,0.7-0.7,1.2-1.2,1.6s-1.2,0.6-2.1,0.5c-0.8,0-1.5-0.2-2.1-0.6s-1-0.9-1.2-1.6
				c-0.3-0.7-0.4-1.5-0.4-2.3c0-0.9,0.1-1.7,0.4-2.4c0.3-0.7,0.7-1.2,1.2-1.6s1.2-0.6,2.1-0.5c0.8,0,1.5,0.2,2.1,0.6
				c0.5,0.4,1,0.9,1.2,1.6c0.3,0.7,0.4,1.5,0.4,2.3C63.6,67.1,63.5,67.9,63.2,68.5z"/>
			<polygon class="st0" points="69.6,60.3 67.9,60.3 67.9,72 74.9,72 74.9,70.4 69.6,70.4 			"/>
			<polygon class="st0" points="81.5,72 83.2,72 83.2,67 87.4,67 87.4,65.3 83.2,65.3 83.2,62 88.4,62 88.4,60.3 81.5,60.3 			"/>
			<path class="st0" d="M98.1,67.6c0,0.5-0.1,0.9-0.2,1.3c-0.2,0.4-0.4,0.7-0.7,1c-0.3,0.3-0.6,0.4-0.9,0.6
				c-0.3,0.1-0.7,0.2-1.1,0.2s-0.7-0.1-1.1-0.2c-0.3-0.1-0.7-0.3-0.9-0.6c-0.3-0.3-0.5-0.6-0.7-1s-0.3-0.8-0.3-1.3v-7.3h-1.7v7.4
				c0,0.9,0.2,1.7,0.6,2.4c0.4,0.7,0.9,1.2,1.6,1.6s1.5,0.6,2.4,0.6s1.7-0.2,2.4-0.6c0.7-0.4,1.3-0.9,1.6-1.6
				c0.4-0.7,0.6-1.5,0.6-2.4v-7.4H98L98.1,67.6L98.1,67.6z"/>
			<path class="st0" d="M110.6,66.5c0.5-0.7,0.7-1.5,0.7-2.4c0-0.6-0.1-1.2-0.3-1.7c-0.2-0.5-0.5-1-1-1.3c-0.4-0.3-1-0.6-1.6-0.7
				c-0.2,0-0.3,0-0.5-0.1c-0.2,0-0.3,0-0.4,0h-4.7V72h1.7v-4.2h3.1l2,4.2h1.9l-2.2-4.5C109.8,67.3,110.3,66.9,110.6,66.5z
				 M104.4,61.9h3c0.1,0,0.2,0,0.4,0c0.1,0,0.3,0,0.4,0.1c0.3,0.1,0.6,0.2,0.8,0.5c0.2,0.2,0.4,0.5,0.5,0.8s0.1,0.6,0.1,0.9
				c0,0.3,0,0.6-0.1,0.9s-0.2,0.5-0.5,0.8c-0.2,0.2-0.5,0.4-0.8,0.5c-0.1,0-0.2,0-0.4,0.1c-0.1,0-0.3,0-0.4,0h-3V61.9z"/>
			<polygon class="st0" points="121.4,69 115.7,60.3 113.9,60.3 113.9,72 115.7,72 115.7,63.3 121.4,72 123.2,72 123.2,60.3 
				121.4,60.3 			"/>
			<rect x="126.2" y="60.3" class="st0" width="1.7" height="11.7"/>
			<polygon class="st0" points="130,61.9 133.9,61.9 133.9,72 135.6,72 135.6,61.9 139.5,61.9 139.5,60.3 130,60.3 			"/>
			<path class="st0" d="M149.1,67.6c0,0.5-0.1,0.9-0.2,1.3c-0.2,0.4-0.4,0.7-0.7,1s-0.6,0.4-0.9,0.6c-0.3,0.1-0.7,0.2-1.1,0.2
				c-0.4,0-0.7-0.1-1.1-0.2c-0.3-0.1-0.7-0.3-0.9-0.6c-0.3-0.3-0.5-0.6-0.7-1s-0.3-0.8-0.3-1.3v-7.3h-1.7v7.4c0,0.9,0.2,1.7,0.6,2.4
				c0.4,0.7,0.9,1.2,1.6,1.6c0.7,0.4,1.5,0.6,2.4,0.6s1.7-0.2,2.4-0.6s1.3-0.9,1.6-1.6c0.4-0.7,0.6-1.5,0.6-2.4v-7.4H149L149.1,67.6
				L149.1,67.6z"/>
			<path class="st0" d="M161.6,66.5c0.5-0.7,0.7-1.5,0.7-2.4c0-0.6-0.1-1.2-0.3-1.7s-0.5-1-1-1.3c-0.4-0.3-1-0.6-1.6-0.7
				c-0.2,0-0.3,0-0.5-0.1c-0.2,0-0.3,0-0.4,0h-4.7V72h1.7v-4.2h3.1l2,4.2h1.9l-2.2-4.5C160.8,67.3,161.3,66.9,161.6,66.5z
				 M155.5,61.9h3c0.1,0,0.2,0,0.4,0c0.1,0,0.3,0,0.4,0.1c0.3,0.1,0.6,0.2,0.8,0.5c0.2,0.2,0.4,0.5,0.5,0.8s0.1,0.6,0.1,0.9
				c0,0.3,0,0.6-0.1,0.9s-0.2,0.5-0.5,0.8c-0.2,0.2-0.5,0.4-0.8,0.5c-0.1,0-0.2,0-0.4,0.1c-0.1,0-0.3,0-0.4,0h-3V61.9z"/>
			<polygon class="st0" points="165,72 172.4,72 172.4,70.4 166.6,70.4 166.6,66.8 171.5,66.8 171.5,65.2 166.6,65.2 166.6,61.9 
				172.4,61.9 172.4,60.3 165,60.3 			"/>
			<path class="st0" d="M189.7,65.9h-4.1v1.4h2.3c-0.1,0.7-0.3,1.3-0.5,1.8c-0.3,0.5-0.7,0.9-1.1,1.1c-0.5,0.3-1.1,0.4-1.7,0.4
				c-0.8,0-1.5-0.2-2.1-0.6s-1-0.9-1.2-1.6c-0.3-0.7-0.4-1.5-0.4-2.3c0-0.9,0.1-1.7,0.4-2.4c0.3-0.7,0.7-1.2,1.2-1.6
				s1.2-0.6,2.1-0.6c0.8,0,1.5,0.2,2,0.6s0.9,1,1.2,1.7l1.7-0.3c-0.3-1.1-0.9-2-1.7-2.6s-1.9-1-3.3-1c-1.1,0-2,0.2-2.8,0.7
				s-1.5,1.2-1.9,2.1c-0.5,0.9-0.7,2-0.7,3.3c0,1,0.1,1.8,0.4,2.6c0.3,0.8,0.7,1.4,1.1,1.9c0.5,0.5,1.1,0.9,1.7,1.2
				c0.7,0.3,1.4,0.4,2.2,0.4c1.1,0,2.1-0.2,2.9-0.7c0.8-0.5,1.4-1.2,1.8-2c0.4-0.9,0.6-1.8,0.6-2.9c0,0,0-0.1,0-0.3
				C189.7,66.2,189.7,66,189.7,65.9z"/>
			<path class="st0" d="M194.6,60.3L190.8,72h1.8l0.9-2.6h4.8l0.9,2.6h1.8l-3.8-11.7H194.6z M193.9,67.8l1.9-5.8l1.9,5.8H193.9z"/>
			<polygon class="st0" points="204.7,60.3 203,60.3 203,72 210,72 210,70.4 204.7,70.4 			"/>
			<polygon class="st0" points="213.8,60.3 212.1,60.3 212.1,72 219.1,72 219.1,70.4 213.8,70.4 			"/>
			<polygon class="st0" points="221.1,72 228.6,72 228.6,70.4 222.8,70.4 222.8,66.8 227.6,66.8 227.6,65.2 222.8,65.2 222.8,61.9 
				228.6,61.9 228.6,60.3 221.1,60.3 			"/>
			<path class="st0" d="M238.8,66.5c0.5-0.7,0.7-1.5,0.7-2.4c0-0.6-0.1-1.2-0.3-1.7s-0.5-1-1-1.3c-0.4-0.3-1-0.6-1.6-0.7
				c-0.2,0-0.3,0-0.5-0.1c-0.2,0-0.3,0-0.4,0H231V72h1.7v-4.2h3.1l2,4.2h1.9l-2.2-4.5C238.1,67.3,238.5,66.9,238.8,66.5z
				 M232.7,61.9h3c0.1,0,0.2,0,0.4,0c0.1,0,0.3,0,0.4,0.1c0.3,0.1,0.6,0.2,0.8,0.5c0.2,0.2,0.4,0.5,0.5,0.8s0.1,0.6,0.1,0.9
				c0,0.3,0,0.6-0.1,0.9s-0.2,0.5-0.5,0.8c-0.2,0.2-0.5,0.4-0.8,0.5c-0.1,0-0.2,0-0.4,0.1c-0.1,0-0.3,0-0.4,0h-3V61.9z"/>
			<polygon class="st0" points="248.3,60.3 245.5,65.2 242.6,60.3 240.7,60.3 244.6,67.2 244.6,72 246.3,72 246.3,67.2 250.3,60.3 
							"/>
		</g>
	</g>
</g>
<g>
	<path class="st0" d="M123.6,97.9c-0.1,0.2,0,0.2-0.2,0.3c-0.2,0-1.8,3-1.9,3.4c0.2-0.1,1-0.9,1.3-1.1c0.2-0.2,0.6-0.4,0.8-0.2
		c0.7,0.6-1.6,2.8-2.3,2c-0.4,0.5-0.4,0.7-0.7,1.2l-0.1-0.1l-0.1-0.1c0.5-1.3,2.2-4.7,3.1-5.7C123.6,97.7,123.6,97.8,123.6,97.9z
		 M123.4,100.4c-0.6,0-1.8,1.4-2.2,1.8C122,102.4,123.6,100.9,123.4,100.4z"/>
	<path class="st0" d="M126.9,101.6L126.9,101.6c-0.6,0.7-1.1,1.2-1.7,1.7c-0.2,0.2-0.5,0.4-0.8,0.6c-0.1,0.1-0.3,0.1-0.4,0.2
		c-0.2,0-0.4-0.2-0.3-0.4c0.1-0.3,0.5-0.7,0.7-0.9c0.7-0.6,1.4-1.1,2.3-1.5c0.4-0.2,0.6-0.6,0.8-1c-0.9,0.4-1.7,1-2.5,1.4
		c-0.1,0.1-0.2,0.1-0.3,0c-0.1-0.1-0.1-0.2,0-0.3c0.1-0.4,0.9-1.1,1.2-1.3c0.2-0.1,0.2-0.1,0.3,0.1c-0.5,0.3-0.8,0.8-1.1,1.2
		c0.8-0.4,1.6-0.9,2.4-1.3c0.1-0.1,0.2-0.1,0.3,0c0.1,0.1,0.1,0.2,0,0.4c-0.1,0.1-0.1,0.3-0.4,0.6c0.6-0.2,1.8-0.3,1.8-0.1
		C128.8,101,127.5,101.3,126.9,101.6z M126.5,101.7c-0.9,0.5-1.8,1-2.5,1.8c-0.1,0.1-0.1,0.2-0.2,0.4
		C124.4,104,126.3,102.1,126.5,101.7z"/>
	<path class="st0" d="M85.1,110.1c1.3-0.7,3.8-3.3,0.7-2.6c-2,0.4-3.8,1.3-5.4,2.5c-0.3,0.2-0.7,0.8-0.7,1.2c0.5,0.8,3.1-0.5,4-0.9
		c0.1,0.1,0,0.1,0.1,0.2c-0.2,0.2-3.3,1.3-5,2.9c-1.2,1.2-1.2,2.4,1,2c2.3-0.4,6.3-2.7,6.6-3.8c0.2,0.2,0.3,0.3,0.1,0.5
		c-0.3,0.4-0.9,0.8-1.3,1.1c-1.4,1-2.9,1.8-4.6,2.3c-0.8,0.2-2.4,0.6-2.9-0.4s0.9-2.2,1.6-2.7c0.4-0.3,0.8-0.5,1.2-0.8
		c-1.1-0.1-1.5-0.7-0.7-1.5c1.5-1.5,3.5-2.4,5.5-3c0.6-0.2,1.4-0.3,2,0c0.4,0.2,0.5,0.7,0.3,1.1c-0.3,0.5-1.7,1.8-2.3,1.9
		L85.1,110.1z"/>
	<path class="st0" d="M92,112.6c-0.8,0.1-2.2,0.7-2.5,0.9c0.2,1.2-2,2.6-3,2.2c-0.7-0.3,0.1-0.9,0.4-1.2c0.7-0.5,1.5-0.9,2.3-1.2
		c-0.2-0.5-0.9-0.4-1-1c0.2-0.3,1-0.6,1.4-0.6c0.3,0,0.3,0.2,0.3,0.4c-0.3-0.3-1,0.1-1.3,0.3c0.2,0.2,0.5,0.5,0.8,0.8
		C89.8,113.1,91.1,112.5,92,112.6L92,112.6z M86.5,115.2l-0.1,0.2c1,0.1,2.7-0.8,2.8-1.8C88.6,113.8,86.7,114.9,86.5,115.2z"/>
	<path class="st0" d="M95.9,112.3c0.3-0.3,0.7-0.6,1.1-0.8c0.1,0,0.2,0,0.3,0.1c0.2,0.4-1,1.7-1,2.3c0.2,0.8,3.7-1.3,4.3-1.5
		c0.1,0,0.1,0.1,0.1,0.2c-0.6,0.4-3.4,2-4.2,1.7c-0.4-0.1-0.5-0.6-0.4-1s0.5-0.9,0.6-1.2c-0.5,0.5-1.7,1.3-2.3,1.6
		c-0.3,0.1-0.7-0.1-0.6-0.5c0-0.2,0.1-0.4,0.2-0.5c-0.6,0.5-1.1,1.1-1.7,1.6c-0.1,0.1-0.2,0.1-0.3,0c-0.1-0.1-0.2-0.2-0.1-0.4
		c0.1-0.4,1.5-2.8,1.9-2.5c0.1,0.1,0.1,0.3,0.1,0.4c-0.1,0-0.2,0-0.3,0.1c-0.5,0.5-0.9,1.2-1.2,1.8c0.4-0.2,1.8-2.1,2.1-1.7
		c0.3,0.2-0.3,1.1-0.3,1.4C94.7,113.3,95.3,112.8,95.9,112.3z"/>
	<path class="st0" d="M100.5,113.8c-0.1,0.6,2.8-0.6,4.1-1.3c0.1-0.1,0.6-0.3,0.5,0c-0.9,0.5-4.2,2.3-4.7,1.7
		c-0.9-1.1,1.5-2.5,2.2-2.6c0.3,0,0.6,0.3,0.4,0.6c-0.5,0.7-1.4,1.2-2.3,1.1L100.5,113.8z M101,113.1c0.6,0,1.3-0.5,1.7-1
		C101.9,112.3,101.5,112.5,101,113.1z"/>
	<path class="st0" d="M110.3,112.6c-1.7,0.9-2.5,1.2-2.3-0.7c-0.9,0-2.2,1.8-2.8,2.4c-0.1-0.1-0.2-0.2-0.3-0.3
		c0.2-0.7,1.2-2.3,1.7-2.6c0.2,0.2,0.2,0.4,0.2,0.6c0.3-0.2,1.3-0.9,1.5,0c0.1,0.7-0.2,1,0.8,0.8c0.5-0.1,0.9-0.3,1.2-0.4
		L110.3,112.6z M105.9,112.9c0.2-0.1,0.7-0.6,0.9-0.7c0,0-0.1-0.1-0.2-0.2C106.4,112.2,105.9,112.7,105.9,112.9z"/>
	<path class="st0" d="M112.4,113.1c-0.5,0.4-0.7,0.6-1.2,1c-1.2,0.8-1.7-0.1-0.9-1c0.2-0.2,0.4-0.5,0.7-0.7c0.5-0.5,1.1-0.8,1.3-0.8
		c0.6,0,0.8,0.4,1.1,0.8c-0.3,0.6-0.8,1.1-0.8,1.7c0.6,0.3,2.6-1.1,3.2-1.5c0.1,0,0.2-0.2,0.3-0.2l0.1,0.1c-0.5,0.7-2.2,1.7-3.1,1.9
		c-0.5,0.1-1-0.3-0.8-0.8L112.4,113.1z M112.4,112.6c0.2-0.1,0.6-0.4,0.4-0.6c-0.3-0.5-1.5,0.5-2.2,1.3s-0.3,0.8,0.2,0.5
		S112,113,112.4,112.6z"/>
	<path class="st0" d="M118.1,113.8c1.1-0.5,2.5-1.3,2.8-1.3c0.1,0,0.1,0,0.1,0.1c-0.9,0.7-2.1,1.3-3.2,1.7c-0.2,0.1-0.4,0.2-0.7,0.1
		c-0.5,0-0.8-0.3-0.8-0.8c-0.1-1.6,2.5-4.5,3.7-5.3c0.3-0.2,0.5,0.1,0.5,0.4c-0.3,1.1-2.3,3.2-3.7,4.2
		C116.2,114.3,117.1,114.2,118.1,113.8z M117,112.5c0.7-0.4,2.2-2.2,3.1-3.7C119.2,109.3,117.4,111.4,117,112.5z"/>
	<path class="st0" d="M124.3,114.1c-0.5,0-0.7-0.2-1-0.5c-0.1,0.1-1,0.8-1.2,0.9c-0.3,0.2-0.7,0.4-1.1,0c-0.9-0.7,1.4-3.5,2.4-2.7
		c0-0.1,0.1-0.2,0.1-0.2c0.6-1.1,1.4-2.1,2.5-2.9c0.2-0.2,0.5-0.3,0.7-0.4c0.3-0.1,0.7,0.2,0.6,0.5c-0.3,1.5-2.3,3.2-3.4,4.2
		c-0.1,0.1-0.5,0.4-0.4,0.5c0.1,0.4,1,0.3,1.2,0.2c0.6-0.2,3.1-1.1,3.5-1.3c0,0,0,0,0.1,0.1C127.1,113,125.7,114,124.3,114.1z
		 M121.2,114.4c0.6-0.3,1.9-0.9,1.9-1.6c0-0.3,0.1-0.6,0.2-0.8C122.6,111.7,120.8,113.7,121.2,114.4z M123.5,112.8
		c1.1-0.7,3.7-4,3.4-4.2C125.8,109,123.6,111.3,123.5,112.8z"/>
	<path class="st0" d="M130.4,113.1c-0.5,0.4-0.7,0.6-1.2,1c-1.2,0.8-1.7-0.1-0.9-1c0.2-0.2,0.4-0.5,0.7-0.7c0.5-0.5,1.1-0.8,1.3-0.8
		c0.6,0,0.8,0.4,1.1,0.8c-0.3,0.6-0.8,1.1-0.8,1.7c0.6,0.3,2.6-1.1,3.2-1.5c0.1,0,0.2-0.2,0.3-0.2l0.1,0.1c-0.5,0.7-2.2,1.7-3.1,1.9
		c-0.5,0.1-1-0.3-0.8-0.8L130.4,113.1z M130.4,112.6c0.2-0.1,0.6-0.4,0.4-0.6c-0.3-0.5-1.5,0.5-2.2,1.3s-0.3,0.8,0.2,0.5
		C129.3,113.5,130,113,130.4,112.6z"/>
	<path class="st0" d="M141.8,115.6L141.8,115.6c-0.2-0.3-0.5-0.2-0.8-0.2c-0.6,0.1-1.4,0.5-2,0.8c-0.2,0.1-0.2,0-0.3-0.2
		c0.8-0.4,1.7-0.7,2.5-0.9c0.2,0,0.3-0.1,0.4-0.3c0.9-1.7,1.6-3.3,2.9-5.2c0.4-0.6,1.1-1.5,1.5-2.1c-1.1,0-3.9,0.6-4.6,1.5
		c-0.2,0.3-0.2,0.6,0.1,0.9c0.4,0.4,1,0.5,1.4,1c-0.3,0-0.7-0.2-1.1-0.4c-0.3-0.1-0.5-0.4-0.7-0.7c-0.2-0.4-0.2-0.6,0.1-1
		c1.2-1.4,6.1-2,7.5-1.6c0.2,0.1,0.2,0.2,0.2,0.5c-0.6-0.2-1.6-0.2-2.2-0.1c-0.6,0.1-4.3,6.4-4.5,7.4c0.9-0.1,2.3-0.3,3.1,0.2
		c0.4,0.3,0.4,0.8,0,1.1l-0.1-0.2c0.1-0.1,0.2-0.3,0.2-0.4c-0.5-0.8-2.7-0.5-3.4-0.3v0.2C142,115.6,141.8,115.6,141.8,115.6z"/>
	<path class="st0" d="M149.8,108.4c-0.1,0.2,0,0.3-0.3,0.4s-2.5,4.1-2.6,4.5c0.3-0.1,1.3-1.2,1.7-1.5c0.3-0.2,0.8-0.6,1.1-0.3
		c1,0.8-2.1,3.7-3.1,2.7c-0.5,0.6-0.5,0.9-0.9,1.6l-0.2-0.1l-0.2-0.1c0.7-1.7,2.9-6.3,4.1-7.5C149.8,108.1,149.9,108.2,149.8,108.4z
		 M149.6,111.7c-0.8,0.1-2.4,1.8-2.9,2.4C147.8,114.4,149.8,112.3,149.6,111.7z"/>
	<path class="st0" d="M153.1,113.1c-0.5,0.4-0.7,0.6-1.2,1c-1.2,0.8-1.7-0.1-0.9-1c0.2-0.2,0.4-0.5,0.7-0.7c0.5-0.5,1.1-0.8,1.3-0.8
		c0.6,0,0.8,0.4,1.1,0.8c-0.3,0.6-0.8,1.1-0.8,1.7c0.6,0.3,2.6-1.1,3.2-1.5c0.1,0,0.2-0.2,0.3-0.2l0.1,0.1c-0.5,0.7-2.2,1.7-3.1,1.9
		c-0.5,0.1-1-0.3-0.8-0.8L153.1,113.1z M153.1,112.6c0.2-0.1,0.6-0.4,0.4-0.6c-0.3-0.5-1.5,0.5-2.2,1.3s-0.3,0.8,0.2,0.5
		S152.7,113,153.1,112.6z"/>
	<path class="st0" d="M161.9,112.6c-1.7,0.9-2.5,1.2-2.3-0.7c-0.9,0-2.2,1.8-2.8,2.4c-0.1-0.1-0.2-0.2-0.3-0.3
		c0.2-0.7,1.2-2.3,1.7-2.6c0.2,0.2,0.2,0.4,0.2,0.6c0.3-0.2,1.3-0.9,1.5,0c0.1,0.7-0.2,1,0.8,0.8c0.5-0.1,0.9-0.3,1.2-0.4
		L161.9,112.6z M157.5,112.9c0.2-0.1,0.7-0.6,0.9-0.7c0,0-0.1-0.1-0.2-0.2C158,112.2,157.6,112.7,157.5,112.9z"/>
	<path class="st0" d="M167.1,112.6c-1.7,0.9-2.5,1.2-2.3-0.7c-0.9,0-2.2,1.8-2.8,2.4c-0.1-0.1-0.2-0.2-0.3-0.3
		c0.2-0.7,1.2-2.3,1.7-2.6c0.2,0.2,0.2,0.4,0.2,0.6c0.3-0.2,1.3-0.9,1.5,0c0.1,0.7-0.2,1,0.8,0.8c0.5-0.1,0.9-0.3,1.2-0.4
		L167.1,112.6z M162.7,112.9c0.2-0.1,0.7-0.6,0.9-0.7c0,0-0.1-0.1-0.2-0.2C163.2,112.2,162.8,112.7,162.7,112.9z"/>
	<path class="st0" d="M169.2,113.1c-0.5,0.4-0.7,0.6-1.2,1c-1.2,0.8-1.7-0.1-0.9-1c0.2-0.2,0.4-0.5,0.7-0.7c0.5-0.5,1.1-0.8,1.3-0.8
		c0.6,0,0.8,0.4,1.1,0.8c-0.3,0.6-0.8,1.1-0.8,1.7c0.6,0.3,2.6-1.1,3.2-1.5c0.1,0,0.2-0.2,0.3-0.2l0.1,0.1c-0.5,0.7-2.2,1.7-3.1,1.9
		c-0.5,0.1-1-0.3-0.8-0.8L169.2,113.1z M169.2,112.6c0.2-0.1,0.6-0.4,0.4-0.6c-0.3-0.5-1.5,0.5-2.2,1.3s-0.3,0.8,0.2,0.5
		C168.1,113.5,168.8,113,169.2,112.6z"/>
</g>
<g>
	<g>
		<path class="st1" d="M142,45.6c0,0,0.1-0.3-0.1-0.5c-0.1-0.1-3.3-13.6-3.5-15.6c0,0,0-0.2-0.1-0.2c0-0.1-3-3.9-7.2-10.2
			c-4.1-6-9.3-14.6-11.5-18.3c0,0-0.3-0.8-0.5-0.8c-0.1,0,0.2,4.4,0.8,9.6c0.6,5.1,1.5,10.9,1.7,11.8c0.3,0.9,6.5,10.3,11.5,16
			C138.3,43.5,142,46,142,45.6z"/>
		<path class="st2" d="M141,47.4c0,0,0.1-0.2-0.1-0.4c-0.1-0.1-1.1-2.7-2.3-5.9c-1.2-3.1-2.5-6.8-2.7-7.7c0,0,0-0.2-0.1-0.2
			c0,0-3.2-3.4-7.5-8.7c-4.2-5.1-9.5-12.2-11.7-15.2c0,0-0.3-0.7-0.5-0.6c-0.2,0,4.1,18.3,4.7,19.9c0.3,0.8,6.4,8,11.4,12.4
			C137.1,45.7,141,47.8,141,47.4z"/>
		<path class="st3" d="M140,49.3c0,0,0-0.2-0.2-0.3c-0.1-0.1-1.3-2.1-2.8-4.7c-1.4-2.5-3.1-5.6-3.6-6.7c0-0.1-0.1-0.1-0.1-0.2
			c0,0,0-0.1-0.1-0.1c0,0-3.2-2.7-7.4-6.6c-4.1-3.8-9.2-8.8-11.5-11.2c-0.2-0.2-0.3-0.3-0.4-0.5s-0.3-0.3-0.4-0.2
			c-0.1,0.2,5.7,15.7,6.4,16.8c0.3,0.6,6.2,5.5,11.1,8.8C136.1,47.8,140.1,49.6,140,49.3z"/>
		<path class="st4" d="M139.2,51c0,0,0-0.2-0.3-0.3c-0.1-0.1-1.8-1.8-3.9-4.1c-2-2.2-4.4-5-5-5.8c0,0,0,0,0-0.1l-0.1-0.1
			c0,0-3.7-2-8.4-4.7c-4.6-2.6-10.2-5.7-12.6-7.1c-0.1,0-0.2-0.1-0.2-0.2c-0.1-0.1-0.4-0.3-0.4-0.1c0,0.4,8.4,13,9.1,13.7
			c0.4,0.4,6.7,3.2,12,5.3C134.8,49.7,139.3,51.2,139.2,51z"/>
	</g>
</g>
<g>
	<path class="st0" d="M75.7,83.7v-6.3h0.5v6.3H75.7z"/>
	<path class="st0" d="M77.5,83.7v-6.3H78l3.6,5.4v-5.4h0.5v6.3h-0.5L78,78.3v5.4C78,83.7,77.5,83.7,77.5,83.7z"/>
	<path class="st0" d="M85.1,83.7v-5.8h-2.2v-0.5h5v0.5h-2.2v5.8H85.1z"/>
	<path class="st0" d="M88.5,83.7v-6.3h3.9v0.5H89v2.4h2.8v0.5H89v2.4h3.4v0.5H88.5z"/>
	<path class="st0" d="M93.4,83.7v-6.3h2.4c0.1,0,0.1,0,0.2,0s0.1,0,0.2,0c0.3,0,0.6,0.2,0.8,0.3s0.4,0.4,0.5,0.7
		c0.1,0.3,0.2,0.6,0.2,0.9c0,0.5-0.1,0.9-0.4,1.2c-0.2,0.3-0.6,0.6-1,0.7l-0.1,0.1H94v2.4C94,83.7,93.4,83.7,93.4,83.7z M93.9,80.8
		h1.9c0.1,0,0.1,0,0.2,0s0.1,0,0.2,0c0.2,0,0.4-0.1,0.6-0.3c0.2-0.1,0.3-0.3,0.3-0.5c0.1-0.2,0.1-0.4,0.1-0.6s0-0.4-0.1-0.6
		s-0.2-0.4-0.3-0.5c-0.2-0.1-0.3-0.2-0.6-0.3c-0.1,0-0.1,0-0.2,0s-0.1,0-0.2,0h-1.9V80.8z M97.3,83.7L96,81.1l0.5-0.2l1.4,2.8
		C97.9,83.7,97.3,83.7,97.3,83.7z"/>
	<path class="st0" d="M98.9,83.7v-6.3h0.5v6.3H98.9z"/>
	<path class="st0" d="M103.2,83.8c-0.6,0-1.1-0.1-1.6-0.4c-0.4-0.3-0.7-0.7-1-1.1c-0.2-0.5-0.3-1.1-0.3-1.7s0.1-1.2,0.3-1.7
		c0.2-0.5,0.5-0.9,1-1.1s0.9-0.4,1.6-0.4c0.6,0,1.1,0.1,1.6,0.4c0.4,0.3,0.7,0.7,1,1.1c0.2,0.5,0.3,1.1,0.3,1.7s-0.1,1.2-0.3,1.7
		c-0.2,0.5-0.5,0.9-1,1.1C104.3,83.7,103.8,83.8,103.2,83.8z M103.2,83.3c0.5,0,0.9-0.1,1.3-0.4c0.3-0.2,0.6-0.6,0.8-1
		c0.2-0.4,0.3-0.9,0.3-1.4s-0.1-1-0.3-1.4c-0.2-0.4-0.4-0.7-0.8-1c-0.3-0.2-0.8-0.4-1.3-0.4s-0.9,0.1-1.3,0.3
		c-0.3,0.2-0.6,0.6-0.8,1c-0.2,0.4-0.3,0.9-0.3,1.4s0.1,1,0.3,1.4c0.2,0.4,0.4,0.7,0.8,1C102.3,83.2,102.7,83.3,103.2,83.3z"/>
	<path class="st0" d="M106.9,83.7v-6.3h2.4c0.1,0,0.1,0,0.2,0s0.1,0,0.2,0c0.3,0,0.6,0.2,0.8,0.3s0.4,0.4,0.5,0.7
		c0.1,0.3,0.2,0.6,0.2,0.9c0,0.5-0.1,0.9-0.4,1.2c-0.2,0.3-0.6,0.6-1,0.7l-0.1,0.1h-2.2v2.4C107.5,83.7,106.9,83.7,106.9,83.7z
		 M107.4,80.8h1.9c0.1,0,0.1,0,0.2,0s0.1,0,0.2,0c0.2,0,0.4-0.1,0.6-0.3c0.2-0.1,0.3-0.3,0.3-0.5c0.1-0.2,0.1-0.4,0.1-0.6
		s0-0.4-0.1-0.6s-0.2-0.4-0.3-0.5c-0.2-0.1-0.3-0.2-0.6-0.3c-0.1,0-0.1,0-0.2,0s-0.1,0-0.2,0h-1.9V80.8z M110.8,83.7l-1.2-2.5
		l0.5-0.2l1.4,2.8h-0.7V83.7z"/>
	<path class="st0" d="M114,83.7v-6.3h1.9c0.1,0,0.2,0,0.4,0c0.2,0,0.3,0,0.5,0c0.5,0.1,0.9,0.2,1.2,0.5c0.3,0.3,0.5,0.7,0.7,1.1
		s0.2,0.9,0.2,1.5c0,0.5-0.1,1-0.2,1.5s-0.4,0.8-0.7,1.1c-0.3,0.3-0.7,0.5-1.2,0.5c-0.1,0-0.3,0-0.5,0s-0.3,0-0.4,0H114V83.7z
		 M114.6,83.2h1.3c0.1,0,0.3,0,0.4,0s0.3,0,0.4,0c0.4-0.1,0.7-0.2,0.9-0.5c0.2-0.2,0.4-0.5,0.5-0.9s0.2-0.8,0.2-1.2
		c0-0.4-0.1-0.9-0.2-1.2c-0.1-0.4-0.3-0.7-0.5-0.9s-0.5-0.4-0.9-0.5c-0.1,0-0.2,0-0.4,0c-0.1,0-0.3,0-0.4,0h-1.3V83.2z"/>
	<path class="st0" d="M119.8,83.7v-6.3h3.9v0.5h-3.4v2.4h2.8v0.5h-2.8v2.4h3.4v0.5H119.8z"/>
	<path class="st0" d="M126.5,83.8c-0.4,0-0.8-0.1-1.2-0.2c-0.3-0.1-0.6-0.3-0.9-0.6c-0.2-0.3-0.4-0.6-0.4-0.9l0.5-0.1
		c0.1,0.4,0.3,0.7,0.7,1c0.4,0.2,0.8,0.4,1.3,0.4c0.3,0,0.6-0.1,0.9-0.2s0.5-0.3,0.6-0.5c0.1-0.2,0.2-0.4,0.2-0.7
		c0-0.2,0-0.3-0.1-0.5c-0.1-0.1-0.2-0.2-0.3-0.3c-0.1-0.1-0.2-0.1-0.3-0.2c-0.1-0.1-0.2-0.1-0.3-0.1l-1.6-0.5
		c-0.2-0.1-0.4-0.1-0.6-0.2s-0.3-0.2-0.4-0.3c-0.1-0.1-0.2-0.3-0.3-0.4c-0.1-0.2-0.1-0.3-0.1-0.5c0-0.3,0.1-0.6,0.3-0.9
		c0.2-0.3,0.4-0.4,0.7-0.6c0.3-0.1,0.7-0.2,1.1-0.2s0.8,0.1,1.1,0.2s0.6,0.4,0.8,0.6c0.2,0.3,0.3,0.6,0.4,1l-0.5,0.1
		c0-0.3-0.1-0.5-0.3-0.8c-0.2-0.2-0.4-0.4-0.6-0.5c-0.3-0.1-0.5-0.2-0.9-0.2c-0.3,0-0.6,0-0.8,0.2c-0.2,0.1-0.4,0.2-0.6,0.4
		c-0.1,0.2-0.2,0.4-0.2,0.6s0.1,0.4,0.2,0.6c0.1,0.1,0.3,0.2,0.5,0.3c0.2,0.1,0.4,0.1,0.5,0.2l1.3,0.4c0.1,0,0.3,0.1,0.4,0.1
		c0.2,0.1,0.3,0.2,0.5,0.3c0.2,0.1,0.3,0.3,0.4,0.5c0.1,0.2,0.2,0.4,0.2,0.7c0,0.3-0.1,0.5-0.2,0.8c-0.1,0.2-0.3,0.4-0.5,0.6
		s-0.4,0.3-0.7,0.4C127.2,83.8,126.9,83.8,126.5,83.8z"/>
	<path class="st0" d="M129.7,83.7v-6.3h0.5v6.3H129.7z"/>
	<path class="st0" d="M134,83.8c-0.5,0-0.9-0.1-1.2-0.2c-0.4-0.2-0.6-0.4-0.9-0.7c-0.2-0.3-0.4-0.6-0.5-1s-0.2-0.8-0.2-1.3
		c0-0.6,0.1-1.2,0.3-1.7s0.5-0.9,1-1.1c0.4-0.3,0.9-0.4,1.5-0.4s1.2,0.1,1.6,0.4c0.4,0.3,0.7,0.7,0.9,1.2l-0.5,0.2
		c-0.1-0.4-0.4-0.7-0.7-0.9c-0.3-0.2-0.7-0.3-1.2-0.3s-0.9,0.1-1.3,0.3c-0.3,0.2-0.6,0.6-0.8,1s-0.3,0.9-0.3,1.4s0.1,1,0.3,1.4
		s0.4,0.7,0.8,1c0.3,0.2,0.8,0.4,1.3,0.4s0.9-0.1,1.2-0.3c0.3-0.2,0.5-0.5,0.7-0.8c0.2-0.4,0.2-0.8,0.2-1.2h-1.6v-0.5h2.1
		c0,0.1,0,0.1,0,0.2s0,0.1,0,0.2c0,0.6-0.1,1.1-0.3,1.5s-0.5,0.8-0.9,1C135.1,83.7,134.6,83.8,134,83.8z"/>
	<path class="st0" d="M137.6,83.7v-6.3h0.5l3.6,5.4v-5.4h0.5v6.3h-0.5l-3.6-5.4v5.4H137.6z"/>
	<path class="st0" d="M147.3,83.8c-0.4,0-0.8-0.1-1.2-0.2c-0.3-0.1-0.6-0.3-0.9-0.6c-0.2-0.3-0.4-0.6-0.4-0.9l0.5-0.1
		c0.1,0.4,0.3,0.7,0.7,1c0.4,0.2,0.8,0.4,1.3,0.4c0.3,0,0.6-0.1,0.9-0.2c0.3-0.1,0.5-0.3,0.6-0.5s0.2-0.4,0.2-0.7
		c0-0.2,0-0.3-0.1-0.5c-0.1-0.1-0.2-0.2-0.3-0.3c-0.1-0.1-0.2-0.1-0.3-0.2s-0.2-0.1-0.3-0.1l-1.6-0.5c-0.2-0.1-0.4-0.1-0.6-0.2
		c-0.2-0.1-0.3-0.2-0.4-0.3c-0.1-0.1-0.2-0.3-0.3-0.4c-0.1-0.2-0.1-0.3-0.1-0.5c0-0.3,0.1-0.6,0.3-0.9s0.4-0.4,0.7-0.6
		c0.3-0.1,0.7-0.2,1.1-0.2c0.4,0,0.8,0.1,1.1,0.2s0.6,0.4,0.8,0.6c0.2,0.3,0.3,0.6,0.4,1l-0.5,0.1c0-0.3-0.1-0.5-0.3-0.8
		c-0.2-0.2-0.4-0.4-0.6-0.5c-0.3-0.1-0.5-0.2-0.9-0.2c-0.3,0-0.6,0-0.8,0.2c-0.2,0.1-0.4,0.2-0.6,0.4c-0.1,0.2-0.2,0.4-0.2,0.6
		s0.1,0.4,0.2,0.6c0.1,0.1,0.3,0.2,0.5,0.3c0.2,0.1,0.4,0.1,0.5,0.2l1.3,0.4c0.1,0,0.3,0.1,0.4,0.1c0.2,0.1,0.3,0.2,0.5,0.3
		c0.2,0.1,0.3,0.3,0.4,0.5c0.1,0.2,0.2,0.4,0.2,0.7c0,0.3-0.1,0.5-0.2,0.8c-0.1,0.2-0.3,0.4-0.5,0.6s-0.4,0.3-0.7,0.4
		C147.9,83.8,147.6,83.8,147.3,83.8z"/>
	<path class="st0" d="M152.1,83.7v-5.8h-2.2v-0.5h5v0.5h-2.2v5.8H152.1z"/>
	<path class="st0" d="M158,83.8c-0.5,0-0.9-0.1-1.2-0.3c-0.4-0.2-0.6-0.5-0.9-0.8c-0.2-0.4-0.3-0.8-0.3-1.2v-4h0.5v3.9
		c0,0.4,0.1,0.7,0.2,0.9c0.1,0.3,0.3,0.5,0.5,0.6c0.2,0.2,0.4,0.3,0.6,0.4c0.2,0.1,0.4,0.1,0.6,0.1c0.2,0,0.4,0,0.6-0.1
		c0.2-0.1,0.4-0.2,0.6-0.4c0.2-0.2,0.3-0.4,0.5-0.6c0.1-0.3,0.2-0.6,0.2-0.9v-3.9h0.5v4c0,0.5-0.1,0.9-0.3,1.2
		c-0.2,0.4-0.5,0.6-0.9,0.8C158.9,83.7,158.5,83.8,158,83.8z"/>
	<path class="st0" d="M161.6,83.7v-6.3h1.9c0.1,0,0.2,0,0.4,0s0.3,0,0.5,0c0.5,0.1,0.9,0.2,1.2,0.5s0.5,0.7,0.7,1.1s0.2,0.9,0.2,1.5
		c0,0.5-0.1,1-0.2,1.5s-0.4,0.8-0.7,1.1c-0.3,0.3-0.7,0.5-1.2,0.5c-0.1,0-0.3,0-0.5,0s-0.3,0-0.4,0h-1.9V83.7z M162.1,83.2h1.3
		c0.1,0,0.3,0,0.4,0c0.1,0,0.3,0,0.4,0c0.4-0.1,0.7-0.2,0.9-0.5c0.2-0.2,0.4-0.5,0.5-0.9s0.2-0.8,0.2-1.2c0-0.4-0.1-0.9-0.2-1.2
		c-0.1-0.4-0.3-0.7-0.5-0.9c-0.2-0.2-0.5-0.4-0.9-0.5c-0.1,0-0.2,0-0.4,0c-0.1,0-0.3,0-0.4,0h-1.3V83.2z"/>
	<path class="st0" d="M167.5,83.7v-6.3h0.5v6.3H167.5z"/>
	<path class="st0" d="M171.8,83.8c-0.6,0-1.1-0.1-1.6-0.4c-0.4-0.3-0.7-0.7-1-1.1c-0.2-0.5-0.3-1.1-0.3-1.7s0.1-1.2,0.3-1.7
		s0.5-0.9,1-1.1c0.4-0.3,0.9-0.4,1.6-0.4s1.1,0.1,1.6,0.4c0.4,0.3,0.7,0.7,1,1.1c0.2,0.5,0.3,1.1,0.3,1.7s-0.1,1.2-0.3,1.7
		s-0.5,0.9-1,1.1C172.9,83.7,172.4,83.8,171.8,83.8z M171.8,83.3c0.5,0,0.9-0.1,1.3-0.4c0.3-0.2,0.6-0.6,0.8-1s0.3-0.9,0.3-1.4
		s-0.1-1-0.3-1.4s-0.4-0.7-0.8-1c-0.3-0.2-0.8-0.4-1.3-0.4s-0.9,0.1-1.3,0.3c-0.3,0.2-0.6,0.6-0.8,1s-0.3,0.9-0.3,1.4s0.1,1,0.3,1.4
		s0.4,0.7,0.8,1C170.8,83.2,171.2,83.3,171.8,83.3z"/>
</g>
</svg>
