<?xml version="1.0" encoding="utf-8"?>
<!-- Generator: Adobe Illustrator 26.1.0, SVG Export Plug-In . SVG Version: 6.00 Build 0)  -->
<svg version="1.1" id="Capa_1" xmlns="http://www.w3.org/2000/svg" xmlns:xlink="http://www.w3.org/1999/xlink" x="0px" y="0px"
	 viewBox="0 0 250.3 123.3" style="enable-background:new 0 0 250.3 123.3;" xml:space="preserve">
<style type="text/css">
	.st0{fill:#2B5D68;}
</style>
<g>
	<g>
		<g>
			<g>
				<g>
					<path class="st0" d="M7.3,68.1c-0.4-0.3-1-0.6-1.6-0.7c-0.2,0-0.3,0-0.5-0.1c-0.2,0-0.3,0-0.4,0H0V79h1.7v-4.2h3
						c0.1,0,0.2,0,0.4,0c0.2,0,0.3,0,0.5,0c0.7-0.1,1.2-0.3,1.6-0.7c0.4-0.3,0.8-0.8,1-1.3c0.2-0.5,0.3-1.1,0.3-1.7
						c0-0.6-0.1-1.2-0.3-1.7C8,68.8,7.7,68.4,7.3,68.1z M6.7,71.9c-0.1,0.3-0.2,0.5-0.5,0.8c-0.2,0.2-0.5,0.4-0.8,0.5
						c-0.1,0-0.2,0-0.4,0.1c-0.1,0-0.3,0-0.4,0h-3v-4.3h3c0.1,0,0.2,0,0.4,0c0.1,0,0.3,0,0.4,0.1c0.3,0.1,0.6,0.2,0.8,0.5
						c0.2,0.2,0.4,0.5,0.5,0.8c0.1,0.3,0.1,0.6,0.1,0.9C6.8,71.4,6.8,71.6,6.7,71.9z"/>
					<path class="st0" d="M13,67.3L9.2,79h1.8l0.9-2.6h4.8l0.9,2.6h1.8l-3.8-11.7H13z M12.3,74.8l1.9-5.8l1.9,5.8H12.3z"/>
					<path class="st0" d="M29.1,73.5c0.5-0.7,0.7-1.5,0.7-2.4c0-0.6-0.1-1.2-0.3-1.7c-0.2-0.5-0.5-1-1-1.3c-0.4-0.3-1-0.6-1.6-0.7
						c-0.2,0-0.3,0-0.5-0.1c-0.2,0-0.3,0-0.4,0h-4.7V79H23v-4.2h3.1l2,4.2h1.9l-2.2-4.5C28.4,74.3,28.8,73.9,29.1,73.5z M23,68.9h3
						c0.1,0,0.2,0,0.4,0c0.1,0,0.3,0,0.4,0.1c0.3,0.1,0.6,0.2,0.8,0.5c0.2,0.2,0.4,0.5,0.5,0.8c0.1,0.3,0.1,0.6,0.1,0.9
						c0,0.3,0,0.6-0.1,0.9c-0.1,0.3-0.2,0.5-0.5,0.8c-0.2,0.2-0.5,0.4-0.8,0.5c-0.1,0-0.2,0-0.4,0.1c-0.1,0-0.3,0-0.4,0h-3V68.9z"/>
					<path class="st0" d="M35.7,67.3L31.9,79h1.8l0.9-2.6h4.8l0.9,2.6H42l-3.8-11.7H35.7z M35,74.8l1.9-5.8l1.9,5.8H35z"/>
					<path class="st0" d="M51.4,73.4c-0.3-0.2-0.7-0.4-1-0.5c-0.3-0.1-0.7-0.2-0.9-0.3l-2.2-0.6c-0.3-0.1-0.6-0.2-0.8-0.3
						c-0.3-0.1-0.5-0.3-0.7-0.5c-0.2-0.2-0.3-0.5-0.3-0.8c0-0.3,0.1-0.6,0.3-0.9c0.2-0.3,0.5-0.5,0.9-0.6c0.4-0.1,0.8-0.2,1.2-0.2
						c0.4,0,0.9,0.1,1.3,0.3c0.4,0.2,0.7,0.4,1,0.7c0.3,0.3,0.4,0.7,0.5,1.1l1.8-0.3c-0.2-0.7-0.4-1.3-0.9-1.8
						c-0.4-0.5-0.9-0.9-1.6-1.2c-0.6-0.3-1.3-0.4-2.1-0.4c-0.8,0-1.5,0.1-2.1,0.4c-0.6,0.3-1.1,0.6-1.5,1.1
						c-0.4,0.5-0.6,1.1-0.6,1.8c0,0.5,0.1,0.9,0.2,1.2c0.2,0.3,0.4,0.6,0.6,0.8c0.3,0.2,0.5,0.4,0.8,0.5c0.3,0.1,0.6,0.3,0.9,0.3
						l3,0.9c0.2,0.1,0.4,0.1,0.6,0.2c0.2,0.1,0.3,0.2,0.5,0.3c0.1,0.1,0.2,0.3,0.3,0.4c0.1,0.2,0.1,0.3,0.1,0.6c0,0.4-0.1,0.7-0.4,1
						c-0.2,0.3-0.6,0.5-1,0.6c-0.4,0.1-0.8,0.2-1.3,0.2c-0.8,0-1.4-0.2-2-0.6c-0.6-0.4-0.9-1-1.1-1.7l-1.8,0.3
						c0.1,0.7,0.4,1.4,0.8,1.9c0.4,0.5,1,1,1.7,1.2c0.7,0.3,1.4,0.4,2.3,0.4c0.6,0,1.2-0.1,1.7-0.2c0.5-0.2,1-0.4,1.4-0.7
						c0.4-0.3,0.7-0.7,1-1.1c0.2-0.4,0.4-1,0.4-1.6c0-0.6-0.1-1-0.3-1.4C52,73.9,51.8,73.6,51.4,73.4z"/>
					<path class="st0" d="M62.9,67.8c-0.8-0.5-1.8-0.8-3-0.8c-1.2,0-2.2,0.3-3,0.8c-0.8,0.5-1.5,1.2-1.9,2.1c-0.4,0.9-0.7,2-0.7,3.2
						c0,1.2,0.2,2.3,0.7,3.2c0.4,0.9,1.1,1.6,1.9,2.1c0.8,0.5,1.8,0.8,3,0.8c1.2,0,2.2-0.3,3-0.8c0.8-0.5,1.5-1.2,1.9-2.1
						c0.4-0.9,0.7-2,0.7-3.2c0-1.2-0.2-2.3-0.7-3.2C64.3,69.1,63.7,68.4,62.9,67.8z M63.2,75.5c-0.3,0.7-0.7,1.2-1.2,1.6
						c-0.5,0.4-1.2,0.6-2.1,0.5c-0.8,0-1.5-0.2-2.1-0.6c-0.6-0.4-1-0.9-1.2-1.6c-0.3-0.7-0.4-1.5-0.4-2.3c0-0.9,0.1-1.7,0.4-2.4
						c0.3-0.7,0.7-1.2,1.2-1.6c0.5-0.4,1.2-0.6,2.1-0.5c0.8,0,1.5,0.2,2.1,0.6c0.5,0.4,1,0.9,1.2,1.6c0.3,0.7,0.4,1.5,0.4,2.3
						C63.6,74.1,63.5,74.9,63.2,75.5z"/>
					<polygon class="st0" points="69.6,67.3 67.9,67.3 67.9,79 74.9,79 74.9,77.4 69.6,77.4 					"/>
					<polygon class="st0" points="81.5,79 83.2,79 83.2,74 87.4,74 87.4,72.3 83.2,72.3 83.2,69 88.4,69 88.4,67.3 81.5,67.3 					
						"/>
					<path class="st0" d="M98.1,74.6c0,0.5-0.1,0.9-0.2,1.3c-0.2,0.4-0.4,0.7-0.7,1c-0.3,0.3-0.6,0.4-0.9,0.6
						c-0.3,0.1-0.7,0.2-1.1,0.2c-0.4,0-0.7-0.1-1.1-0.2c-0.3-0.1-0.7-0.3-0.9-0.6c-0.3-0.3-0.5-0.6-0.7-1c-0.2-0.4-0.3-0.8-0.3-1.3
						v-7.3l-1.7,0v7.4c0,0.9,0.2,1.7,0.6,2.4c0.4,0.7,0.9,1.2,1.6,1.6c0.7,0.4,1.5,0.6,2.4,0.6c0.9,0,1.7-0.2,2.4-0.6
						c0.7-0.4,1.3-0.9,1.6-1.6c0.4-0.7,0.6-1.5,0.6-2.4v-7.4h-1.7V74.6z"/>
					<path class="st0" d="M110.6,73.5c0.5-0.7,0.7-1.5,0.7-2.4c0-0.6-0.1-1.2-0.3-1.7c-0.2-0.5-0.5-1-1-1.3c-0.4-0.3-1-0.6-1.6-0.7
						c-0.2,0-0.3,0-0.5-0.1c-0.2,0-0.3,0-0.4,0h-4.7V79h1.7v-4.2h3.1l2,4.2h1.9l-2.2-4.5C109.8,74.3,110.3,73.9,110.6,73.5z
						 M104.4,68.9h3c0.1,0,0.2,0,0.4,0c0.1,0,0.3,0,0.4,0.1c0.3,0.1,0.6,0.2,0.8,0.5c0.2,0.2,0.4,0.5,0.5,0.8
						c0.1,0.3,0.1,0.6,0.1,0.9c0,0.3,0,0.6-0.1,0.9c-0.1,0.3-0.2,0.5-0.5,0.8c-0.2,0.2-0.5,0.4-0.8,0.5c-0.1,0-0.2,0-0.4,0.1
						c-0.1,0-0.3,0-0.4,0h-3V68.9z"/>
					<polygon class="st0" points="121.4,76 115.7,67.3 113.9,67.3 113.9,79 115.7,79 115.7,70.3 121.4,79 123.2,79 123.2,67.3 
						121.4,67.3 					"/>
					<rect x="126.2" y="67.3" class="st0" width="1.7" height="11.7"/>
					<polygon class="st0" points="130,68.9 133.9,68.9 133.9,79 135.6,79 135.6,68.9 139.5,68.9 139.5,67.3 130,67.3 					"/>
					<path class="st0" d="M149.1,74.6c0,0.5-0.1,0.9-0.2,1.3c-0.2,0.4-0.4,0.7-0.7,1c-0.3,0.3-0.6,0.4-0.9,0.6
						c-0.3,0.1-0.7,0.2-1.1,0.2c-0.4,0-0.7-0.1-1.1-0.2c-0.3-0.1-0.7-0.3-0.9-0.6c-0.3-0.3-0.5-0.6-0.7-1c-0.2-0.4-0.3-0.8-0.3-1.3
						v-7.3l-1.7,0v7.4c0,0.9,0.2,1.7,0.6,2.4c0.4,0.7,0.9,1.2,1.6,1.6c0.7,0.4,1.5,0.6,2.4,0.6c0.9,0,1.7-0.2,2.4-0.6
						c0.7-0.4,1.3-0.9,1.6-1.6c0.4-0.7,0.6-1.5,0.6-2.4v-7.4h-1.7V74.6z"/>
					<path class="st0" d="M161.6,73.5c0.5-0.7,0.7-1.5,0.7-2.4c0-0.6-0.1-1.2-0.3-1.7c-0.2-0.5-0.5-1-1-1.3c-0.4-0.3-1-0.6-1.6-0.7
						c-0.2,0-0.3,0-0.5-0.1c-0.2,0-0.3,0-0.4,0h-4.7V79h1.7v-4.2h3.1l2,4.2h1.9l-2.2-4.5C160.8,74.3,161.3,73.9,161.6,73.5z
						 M155.5,68.9h3c0.1,0,0.2,0,0.4,0c0.1,0,0.3,0,0.4,0.1c0.3,0.1,0.6,0.2,0.8,0.5c0.2,0.2,0.4,0.5,0.5,0.8
						c0.1,0.3,0.1,0.6,0.1,0.9c0,0.3,0,0.6-0.1,0.9c-0.1,0.3-0.2,0.5-0.5,0.8c-0.2,0.2-0.5,0.4-0.8,0.5c-0.1,0-0.2,0-0.4,0.1
						c-0.1,0-0.3,0-0.4,0h-3V68.9z"/>
					<polygon class="st0" points="165,79 172.4,79 172.4,77.4 166.6,77.4 166.6,73.8 171.5,73.8 171.5,72.2 166.6,72.2 166.6,68.9 
						172.4,68.9 172.4,67.3 165,67.3 					"/>
					<path class="st0" d="M189.7,72.9h-4.1v1.4h2.3c-0.1,0.7-0.3,1.3-0.5,1.8c-0.3,0.5-0.7,0.9-1.1,1.1c-0.5,0.3-1.1,0.4-1.7,0.4
						c-0.8,0-1.5-0.2-2.1-0.6c-0.6-0.4-1-0.9-1.2-1.6c-0.3-0.7-0.4-1.5-0.4-2.3c0-0.9,0.1-1.7,0.4-2.4c0.3-0.7,0.7-1.2,1.2-1.6
						c0.5-0.4,1.2-0.6,2.1-0.6c0.8,0,1.5,0.2,2,0.6c0.5,0.4,0.9,1,1.2,1.7l1.7-0.3c-0.3-1.1-0.9-2-1.7-2.6c-0.8-0.6-1.9-1-3.3-1
						c-1.1,0-2,0.2-2.8,0.7c-0.8,0.5-1.5,1.2-1.9,2.1c-0.5,0.9-0.7,2-0.7,3.3c0,1,0.1,1.8,0.4,2.6c0.3,0.8,0.7,1.4,1.1,1.9
						c0.5,0.5,1.1,0.9,1.7,1.2c0.7,0.3,1.4,0.4,2.2,0.4c1.1,0,2.1-0.2,2.9-0.7c0.8-0.5,1.4-1.2,1.8-2c0.4-0.9,0.6-1.8,0.6-2.9
						c0,0,0-0.1,0-0.3C189.7,73.2,189.7,73,189.7,72.9z"/>
					<path class="st0" d="M194.6,67.3L190.8,79h1.8l0.9-2.6h4.8l0.9,2.6h1.8l-3.8-11.7H194.6z M193.9,74.8l1.9-5.8l1.9,5.8H193.9z"
						/>
					<polygon class="st0" points="204.7,67.3 203,67.3 203,79 210,79 210,77.4 204.7,77.4 					"/>
					<polygon class="st0" points="213.8,67.3 212.1,67.3 212.1,79 219.1,79 219.1,77.4 213.8,77.4 					"/>
					<polygon class="st0" points="221.1,79 228.6,79 228.6,77.4 222.8,77.4 222.8,73.8 227.6,73.8 227.6,72.2 222.8,72.2 
						222.8,68.9 228.6,68.9 228.6,67.3 221.1,67.3 					"/>
					<path class="st0" d="M238.8,73.5c0.5-0.7,0.7-1.5,0.7-2.4c0-0.6-0.1-1.2-0.3-1.7c-0.2-0.5-0.5-1-1-1.3c-0.4-0.3-1-0.6-1.6-0.7
						c-0.2,0-0.3,0-0.5-0.1c-0.2,0-0.3,0-0.4,0H231V79h1.7v-4.2h3.1l2,4.2h1.9l-2.2-4.5C238.1,74.3,238.5,73.9,238.8,73.5z
						 M232.7,68.9h3c0.1,0,0.2,0,0.4,0c0.1,0,0.3,0,0.4,0.1c0.3,0.1,0.6,0.2,0.8,0.5c0.2,0.2,0.4,0.5,0.5,0.8
						c0.1,0.3,0.1,0.6,0.1,0.9c0,0.3,0,0.6-0.1,0.9c-0.1,0.3-0.2,0.5-0.5,0.8c-0.2,0.2-0.5,0.4-0.8,0.5c-0.1,0-0.2,0-0.4,0.1
						c-0.1,0-0.3,0-0.4,0h-3V68.9z"/>
					<polygon class="st0" points="248.3,67.3 245.5,72.2 242.6,67.3 240.7,67.3 244.6,74.2 244.6,79 246.3,79 246.3,74.2 
						250.3,67.3 					"/>
				</g>
			</g>
		</g>
		<g>
			<path class="st0" d="M75.5,89.8v-5.9h0.3v5.9H75.5z"/>
			<path class="st0" d="M77.4,89.8v-5.9h0.3l3.6,5.3v-5.3h0.3v5.9h-0.3l-3.6-5.3v5.3H77.4z"/>
			<path class="st0" d="M84.9,89.8v-5.6h-2.2v-0.3h4.7v0.3h-2.2v5.6H84.9z"/>
			<path class="st0" d="M88.4,89.8v-5.9H92v0.3h-3.3v2.4h2.8V87h-2.8v2.4H92v0.3H88.4z"/>
			<path class="st0" d="M93.1,89.8v-5.9h2.2c0.1,0,0.1,0,0.2,0c0.1,0,0.1,0,0.2,0c0.3,0,0.5,0.1,0.7,0.3c0.2,0.2,0.4,0.4,0.5,0.6
				c0.1,0.2,0.2,0.5,0.2,0.8c0,0.4-0.1,0.8-0.3,1.1c-0.2,0.3-0.5,0.5-0.9,0.6l-0.1,0.1h-2.3v2.4H93.1z M93.5,87.1h1.8
				c0,0,0.1,0,0.2,0c0.1,0,0.1,0,0.2,0c0.2,0,0.4-0.1,0.6-0.3s0.3-0.3,0.4-0.5c0.1-0.2,0.1-0.4,0.1-0.6c0-0.2,0-0.4-0.1-0.6
				c-0.1-0.2-0.2-0.4-0.4-0.5c-0.2-0.1-0.3-0.2-0.6-0.3c-0.1,0-0.1,0-0.2,0c-0.1,0-0.1,0-0.2,0h-1.8V87.1z M96.8,89.8l-1.2-2.4
				l0.3-0.2l1.3,2.6H96.8z"/>
			<path class="st0" d="M98.4,89.8v-5.9h0.3v5.9H98.4z"/>
			<path class="st0" d="M102.7,89.9c-0.6,0-1.1-0.1-1.5-0.4c-0.4-0.3-0.7-0.6-0.9-1.1c-0.2-0.5-0.3-1-0.3-1.6c0-0.6,0.1-1.1,0.3-1.6
				c0.2-0.5,0.5-0.8,0.9-1.1c0.4-0.3,0.9-0.4,1.5-0.4s1.1,0.1,1.5,0.4c0.4,0.3,0.7,0.6,0.9,1.1c0.2,0.5,0.3,1,0.3,1.6
				c0,0.6-0.1,1.1-0.3,1.6c-0.2,0.5-0.5,0.8-0.9,1.1C103.8,89.8,103.3,89.9,102.7,89.9z M102.7,89.5c0.5,0,0.9-0.1,1.3-0.4
				c0.3-0.2,0.6-0.6,0.8-1c0.2-0.4,0.3-0.9,0.3-1.4s-0.1-1-0.3-1.4c-0.2-0.4-0.4-0.7-0.8-1c-0.3-0.2-0.8-0.3-1.3-0.3
				c-0.5,0-0.9,0.1-1.3,0.3c-0.3,0.2-0.6,0.6-0.8,1c-0.2,0.4-0.3,0.9-0.3,1.4c0,0.5,0.1,1,0.2,1.4c0.2,0.4,0.4,0.7,0.8,1
				C101.8,89.4,102.2,89.5,102.7,89.5z"/>
			<path class="st0" d="M106.6,89.8v-5.9h2.2c0.1,0,0.1,0,0.2,0c0.1,0,0.1,0,0.2,0c0.3,0,0.5,0.1,0.7,0.3c0.2,0.2,0.4,0.4,0.5,0.6
				c0.1,0.2,0.2,0.5,0.2,0.8c0,0.4-0.1,0.8-0.3,1.1c-0.2,0.3-0.5,0.5-0.9,0.6l-0.1,0.1h-2.3v2.4H106.6z M106.9,87.1h1.8
				c0,0,0.1,0,0.2,0c0.1,0,0.1,0,0.2,0c0.2,0,0.4-0.1,0.6-0.3s0.3-0.3,0.4-0.5c0.1-0.2,0.1-0.4,0.1-0.6c0-0.2,0-0.4-0.1-0.6
				c-0.1-0.2-0.2-0.4-0.4-0.5c-0.2-0.1-0.3-0.2-0.6-0.3c-0.1,0-0.1,0-0.2,0c-0.1,0-0.1,0-0.2,0h-1.8V87.1z M110.3,89.8l-1.2-2.4
				l0.3-0.2l1.3,2.6H110.3z"/>
			<path class="st0" d="M114.2,89.8v-5.9h1.7c0.1,0,0.2,0,0.3,0c0.2,0,0.3,0,0.4,0c0.4,0.1,0.8,0.2,1.1,0.5c0.3,0.3,0.5,0.6,0.6,1
				c0.1,0.4,0.2,0.9,0.2,1.4c0,0.5-0.1,1-0.2,1.4c-0.1,0.4-0.4,0.8-0.6,1c-0.3,0.3-0.6,0.4-1.1,0.5c-0.1,0-0.3,0-0.4,0
				c-0.2,0-0.3,0-0.3,0H114.2z M114.6,89.4h1.4c0.1,0,0.3,0,0.4,0c0.1,0,0.2,0,0.3,0c0.4-0.1,0.7-0.2,0.9-0.4
				c0.2-0.2,0.4-0.5,0.5-0.9c0.1-0.4,0.2-0.8,0.2-1.2s-0.1-0.9-0.2-1.2c-0.1-0.4-0.3-0.7-0.5-0.9c-0.2-0.2-0.5-0.4-0.9-0.4
				c-0.1,0-0.2,0-0.3,0c-0.1,0-0.3,0-0.4,0h-1.4V89.4z"/>
			<path class="st0" d="M119.9,89.8v-5.9h3.6v0.3h-3.3v2.4h2.8V87h-2.8v2.4h3.3v0.3H119.9z"/>
			<path class="st0" d="M126.5,89.9c-0.4,0-0.8-0.1-1.1-0.2c-0.3-0.1-0.6-0.3-0.8-0.6c-0.2-0.2-0.3-0.5-0.4-0.8l0.3-0.1
				c0.1,0.4,0.3,0.7,0.7,1c0.3,0.2,0.8,0.4,1.3,0.4c0.3,0,0.6-0.1,0.9-0.2c0.3-0.1,0.5-0.3,0.6-0.5c0.1-0.2,0.2-0.4,0.2-0.7
				c0-0.2,0-0.4-0.1-0.5c-0.1-0.1-0.2-0.2-0.3-0.3c-0.1-0.1-0.2-0.1-0.4-0.2c-0.1,0-0.2-0.1-0.3-0.1l-1.5-0.4
				c-0.2-0.1-0.4-0.1-0.6-0.2c-0.2-0.1-0.3-0.2-0.4-0.3c-0.1-0.1-0.2-0.2-0.2-0.4c0-0.1-0.1-0.3-0.1-0.4c0-0.3,0.1-0.6,0.2-0.8
				c0.2-0.2,0.4-0.4,0.7-0.5c0.3-0.1,0.6-0.2,1-0.2c0.4,0,0.7,0.1,1,0.2c0.3,0.1,0.6,0.3,0.8,0.6c0.2,0.3,0.3,0.6,0.4,0.9l-0.3,0.1
				c0-0.3-0.1-0.5-0.3-0.8c-0.2-0.2-0.4-0.4-0.6-0.5c-0.3-0.1-0.6-0.2-0.9-0.2c-0.3,0-0.6,0.1-0.8,0.2c-0.2,0.1-0.4,0.3-0.5,0.4
				c-0.1,0.2-0.2,0.4-0.2,0.6c0,0.2,0.1,0.4,0.2,0.6c0.1,0.1,0.3,0.3,0.5,0.3c0.2,0.1,0.4,0.1,0.5,0.2l1.2,0.4
				c0.1,0,0.2,0.1,0.4,0.1c0.2,0.1,0.3,0.1,0.4,0.3c0.1,0.1,0.3,0.3,0.4,0.4c0.1,0.2,0.1,0.4,0.1,0.7c0,0.3,0,0.5-0.1,0.7
				c-0.1,0.2-0.2,0.4-0.4,0.5c-0.2,0.1-0.4,0.3-0.6,0.3C127.1,89.8,126.8,89.9,126.5,89.9z"/>
			<path class="st0" d="M129.8,89.8v-5.9h0.3v5.9H129.8z"/>
			<path class="st0" d="M134.1,89.9c-0.4,0-0.8-0.1-1.2-0.2c-0.3-0.2-0.6-0.4-0.8-0.6c-0.2-0.3-0.4-0.6-0.5-1
				c-0.1-0.4-0.2-0.8-0.2-1.2c0-0.6,0.1-1.1,0.3-1.6c0.2-0.5,0.5-0.8,0.9-1.1c0.4-0.3,0.9-0.4,1.5-0.4c0.6,0,1,0.1,1.4,0.4
				c0.4,0.3,0.6,0.6,0.8,1l-0.3,0.1c-0.1-0.4-0.4-0.7-0.7-0.9c-0.3-0.2-0.7-0.3-1.2-0.3c-0.5,0-0.9,0.1-1.3,0.3
				c-0.3,0.2-0.6,0.6-0.8,1c-0.2,0.4-0.3,0.9-0.3,1.4c0,0.5,0.1,1,0.2,1.4c0.2,0.4,0.4,0.7,0.8,1c0.3,0.2,0.8,0.4,1.3,0.4
				c0.5,0,0.9-0.1,1.2-0.3c0.3-0.2,0.5-0.5,0.7-0.8s0.2-0.8,0.2-1.2h-1.6v-0.3h1.9c0,0.1,0,0.1,0,0.2c0,0.1,0,0.1,0,0.1
				c0,0.5-0.1,1-0.3,1.4c-0.2,0.4-0.4,0.7-0.8,1C135.2,89.8,134.7,89.9,134.1,89.9z"/>
			<path class="st0" d="M137.8,89.8v-5.9h0.3l3.6,5.3v-5.3h0.3v5.9h-0.3l-3.6-5.3v5.3H137.8z"/>
			<path class="st0" d="M147.8,89.9c-0.4,0-0.8-0.1-1.1-0.2c-0.3-0.1-0.6-0.3-0.8-0.6s-0.3-0.5-0.4-0.8l0.3-0.1
				c0.1,0.4,0.3,0.7,0.7,1c0.3,0.2,0.8,0.4,1.3,0.4c0.3,0,0.6-0.1,0.9-0.2c0.3-0.1,0.5-0.3,0.6-0.5c0.1-0.2,0.2-0.4,0.2-0.7
				c0-0.2,0-0.4-0.1-0.5c-0.1-0.1-0.2-0.2-0.3-0.3c-0.1-0.1-0.2-0.1-0.4-0.2c-0.1,0-0.2-0.1-0.3-0.1l-1.5-0.4
				c-0.2-0.1-0.4-0.1-0.6-0.2c-0.2-0.1-0.3-0.2-0.4-0.3c-0.1-0.1-0.2-0.2-0.2-0.4c0-0.1-0.1-0.3-0.1-0.4c0-0.3,0.1-0.6,0.2-0.8
				c0.2-0.2,0.4-0.4,0.7-0.5c0.3-0.1,0.6-0.2,1-0.2c0.4,0,0.7,0.1,1,0.2c0.3,0.1,0.6,0.3,0.8,0.6c0.2,0.3,0.3,0.6,0.4,0.9l-0.3,0.1
				c0-0.3-0.1-0.5-0.3-0.8s-0.4-0.4-0.6-0.5c-0.3-0.1-0.6-0.2-0.9-0.2c-0.3,0-0.6,0.1-0.8,0.2c-0.2,0.1-0.4,0.3-0.5,0.4
				c-0.1,0.2-0.2,0.4-0.2,0.6c0,0.2,0.1,0.4,0.2,0.6c0.1,0.1,0.3,0.3,0.5,0.3s0.4,0.1,0.5,0.2l1.2,0.4c0.1,0,0.2,0.1,0.4,0.1
				c0.2,0.1,0.3,0.1,0.4,0.3c0.1,0.1,0.3,0.3,0.4,0.4c0.1,0.2,0.1,0.4,0.1,0.7c0,0.3,0,0.5-0.1,0.7c-0.1,0.2-0.2,0.4-0.4,0.5
				c-0.2,0.1-0.4,0.3-0.6,0.3C148.4,89.8,148.1,89.9,147.8,89.9z"/>
			<path class="st0" d="M152.5,89.8v-5.6h-2.2v-0.3h4.7v0.3h-2.2v5.6H152.5z"/>
			<path class="st0" d="M158.3,89.9c-0.4,0-0.8-0.1-1.2-0.3c-0.3-0.2-0.6-0.4-0.8-0.8c-0.2-0.3-0.3-0.7-0.3-1.2v-3.8h0.3v3.7
				c0,0.4,0.1,0.7,0.2,0.9c0.1,0.3,0.3,0.5,0.5,0.6c0.2,0.2,0.4,0.3,0.6,0.3c0.2,0.1,0.4,0.1,0.6,0.1c0.2,0,0.4,0,0.6-0.1
				c0.2-0.1,0.4-0.2,0.6-0.3c0.2-0.2,0.4-0.4,0.5-0.6c0.1-0.3,0.2-0.6,0.2-0.9v-3.7h0.3v3.8c0,0.4-0.1,0.8-0.3,1.2
				c-0.2,0.3-0.5,0.6-0.8,0.8C159.1,89.8,158.7,89.9,158.3,89.9z"/>
			<path class="st0" d="M162,89.8v-5.9h1.7c0.1,0,0.2,0,0.3,0c0.2,0,0.3,0,0.4,0c0.4,0.1,0.8,0.2,1.1,0.5c0.3,0.3,0.5,0.6,0.6,1
				c0.1,0.4,0.2,0.9,0.2,1.4c0,0.5-0.1,1-0.2,1.4c-0.1,0.4-0.4,0.8-0.6,1c-0.3,0.3-0.6,0.4-1.1,0.5c-0.1,0-0.3,0-0.4,0
				c-0.2,0-0.3,0-0.3,0H162z M162.4,89.4h1.4c0.1,0,0.3,0,0.4,0c0.1,0,0.2,0,0.3,0c0.4-0.1,0.7-0.2,0.9-0.4c0.2-0.2,0.4-0.5,0.5-0.9
				c0.1-0.4,0.2-0.8,0.2-1.2s-0.1-0.9-0.2-1.2c-0.1-0.4-0.3-0.7-0.5-0.9c-0.2-0.2-0.5-0.4-0.9-0.4c-0.1,0-0.2,0-0.3,0
				c-0.1,0-0.3,0-0.4,0h-1.4V89.4z"/>
			<path class="st0" d="M167.8,89.8v-5.9h0.3v5.9H167.8z"/>
			<path class="st0" d="M172,89.9c-0.6,0-1.1-0.1-1.5-0.4c-0.4-0.3-0.7-0.6-0.9-1.1c-0.2-0.5-0.3-1-0.3-1.6c0-0.6,0.1-1.1,0.3-1.6
				s0.5-0.8,0.9-1.1c0.4-0.3,0.9-0.4,1.5-0.4s1.1,0.1,1.5,0.4c0.4,0.3,0.7,0.6,0.9,1.1s0.3,1,0.3,1.6c0,0.6-0.1,1.1-0.3,1.6
				c-0.2,0.5-0.5,0.8-0.9,1.1C173.1,89.8,172.6,89.9,172,89.9z M172,89.5c0.5,0,0.9-0.1,1.3-0.4c0.3-0.2,0.6-0.6,0.8-1
				c0.2-0.4,0.3-0.9,0.3-1.4s-0.1-1-0.3-1.4c-0.2-0.4-0.4-0.7-0.8-1c-0.3-0.2-0.8-0.3-1.3-0.3c-0.5,0-0.9,0.1-1.3,0.3
				c-0.3,0.2-0.6,0.6-0.8,1c-0.2,0.4-0.3,0.9-0.3,1.4c0,0.5,0.1,1,0.2,1.4c0.2,0.4,0.4,0.7,0.8,1C171.1,89.4,171.5,89.5,172,89.5z"
				/>
		</g>
		<g>
			<path class="st0" d="M123.6,104.9c-0.1,0.2,0,0.2-0.2,0.3c-0.2,0-1.8,3-1.9,3.4c0.2-0.1,1-0.9,1.3-1.1c0.2-0.2,0.6-0.4,0.8-0.2
				c0.7,0.6-1.6,2.8-2.3,2c-0.4,0.5-0.4,0.7-0.7,1.2l-0.1-0.1l-0.1-0.1c0.5-1.3,2.2-4.7,3.1-5.7
				C123.6,104.7,123.6,104.8,123.6,104.9z M123.4,107.4c-0.6,0-1.8,1.4-2.2,1.8C122,109.4,123.6,107.9,123.4,107.4z"/>
			<path class="st0" d="M126.9,108.6c0,0-0.1,0.1-0.1,0.1c-0.5,0.6-1,1.1-1.6,1.6c-0.2,0.2-0.5,0.4-0.8,0.6
				c-0.1,0.1-0.3,0.1-0.4,0.2c-0.2,0-0.4-0.2-0.3-0.4c0.1-0.3,0.5-0.7,0.7-0.9c0.7-0.6,1.4-1.1,2.3-1.5c0.4-0.2,0.6-0.6,0.8-1
				c-0.9,0.4-1.7,1-2.5,1.4c-0.1,0.1-0.2,0.1-0.3,0c-0.1-0.1-0.1-0.2,0-0.3c0.1-0.4,0.9-1.1,1.2-1.3c0.2-0.1,0.2-0.1,0.3,0.1
				c-0.5,0.3-0.8,0.8-1.1,1.2c0.8-0.4,1.6-0.9,2.4-1.3c0.1-0.1,0.2-0.1,0.3,0c0.1,0.1,0.1,0.2,0,0.4c-0.1,0.1-0.1,0.3-0.4,0.6
				c0.6-0.2,1.8-0.3,1.8-0.1C128.8,108,127.5,108.3,126.9,108.6z M126.5,108.7c-0.9,0.5-1.8,1-2.5,1.8c-0.1,0.1-0.1,0.2-0.2,0.4
				C124.4,111,126.3,109.1,126.5,108.7z"/>
			<path class="st0" d="M85.1,117.1c1.3-0.7,3.8-3.3,0.7-2.6c-2,0.4-3.8,1.3-5.4,2.5c-0.3,0.2-0.7,0.8-0.7,1.2
				c0.5,0.8,3.1-0.5,4-0.9c0.1,0.1,0,0.1,0.1,0.2c-0.2,0.2-3.3,1.3-5,2.9c-1.2,1.2-1.2,2.4,1,2c2.3-0.4,6.3-2.7,6.6-3.8
				c0.2,0.2,0.3,0.3,0.1,0.5c-0.3,0.4-0.9,0.8-1.3,1.1c-1.4,1-2.9,1.8-4.6,2.3c-0.8,0.2-2.4,0.6-2.9-0.4c-0.5-1,0.9-2.2,1.6-2.7
				c0.4-0.3,0.8-0.5,1.2-0.8c-1.1-0.1-1.5-0.7-0.7-1.5c1.5-1.5,3.5-2.4,5.5-3c0.6-0.2,1.4-0.3,2,0c0.4,0.2,0.5,0.7,0.3,1.1
				c-0.3,0.5-1.7,1.8-2.3,1.9L85.1,117.1z"/>
			<path class="st0" d="M92,119.6c-0.8,0.1-2.2,0.7-2.5,0.9c0.2,1.2-2,2.6-3,2.2c-0.7-0.3,0.1-0.9,0.4-1.2c0.7-0.5,1.5-0.9,2.3-1.2
				c-0.2-0.5-0.9-0.4-1-1c0.2-0.3,1-0.6,1.4-0.6c0.3,0,0.3,0.2,0.3,0.4c-0.3-0.3-1,0.1-1.3,0.3c0.2,0.2,0.5,0.5,0.8,0.8
				c0.4-0.1,1.7-0.7,2.5-0.7L92,119.6z M86.5,122.2l-0.1,0.2c1,0.1,2.7-0.8,2.8-1.8C88.6,120.8,86.7,121.9,86.5,122.2z"/>
			<path class="st0" d="M95.9,119.3c0.3-0.3,0.7-0.6,1.1-0.8c0.1,0,0.2,0,0.3,0.1c0.2,0.4-1,1.7-1,2.3c0.2,0.8,3.7-1.3,4.3-1.5
				c0.1,0,0.1,0.1,0.1,0.2c-0.6,0.4-3.4,2-4.2,1.7c-0.4-0.1-0.5-0.6-0.4-1c0.1-0.4,0.5-0.9,0.6-1.2c-0.5,0.5-1.7,1.3-2.3,1.6
				c-0.3,0.1-0.7-0.1-0.6-0.5c0-0.2,0.1-0.4,0.2-0.5c-0.6,0.5-1.1,1.1-1.7,1.6c-0.1,0.1-0.2,0.1-0.3,0c-0.1-0.1-0.2-0.2-0.1-0.4
				c0.1-0.4,1.5-2.8,1.9-2.5c0.1,0.1,0.1,0.3,0.1,0.4c-0.1,0-0.2,0-0.3,0.1c-0.5,0.5-0.9,1.2-1.2,1.8c0.4-0.2,1.8-2.1,2.1-1.7
				c0.3,0.2-0.3,1.1-0.3,1.4C94.7,120.3,95.3,119.8,95.9,119.3z"/>
			<path class="st0" d="M100.5,120.8c-0.1,0.6,2.8-0.6,4.1-1.3c0.1-0.1,0.6-0.3,0.5,0c-0.9,0.5-4.2,2.3-4.7,1.7
				c-0.9-1.1,1.5-2.5,2.2-2.6c0.3,0,0.6,0.3,0.4,0.6c-0.5,0.7-1.4,1.2-2.3,1.1L100.5,120.8z M101,120.1c0.6,0,1.3-0.5,1.7-1
				C101.9,119.3,101.5,119.5,101,120.1z"/>
			<path class="st0" d="M110.3,119.6c-1.7,0.9-2.5,1.2-2.3-0.7c-0.9,0-2.2,1.8-2.8,2.4c-0.1-0.1-0.2-0.2-0.3-0.3
				c0.2-0.7,1.2-2.3,1.7-2.6c0.2,0.2,0.2,0.4,0.2,0.6c0.3-0.2,1.3-0.9,1.5,0c0.1,0.7-0.2,1,0.8,0.8c0.5-0.1,0.9-0.3,1.2-0.4
				L110.3,119.6z M105.9,119.9c0.2-0.1,0.7-0.6,0.9-0.7c0,0-0.1-0.1-0.2-0.2C106.4,119.2,105.9,119.7,105.9,119.9z"/>
			<path class="st0" d="M112.4,120.1c-0.5,0.4-0.7,0.6-1.2,1c-1.2,0.8-1.7-0.1-0.9-1c0.2-0.2,0.4-0.5,0.7-0.7
				c0.5-0.5,1.1-0.8,1.3-0.8c0.6,0,0.8,0.4,1.1,0.8c-0.3,0.6-0.8,1.1-0.8,1.7c0.6,0.3,2.6-1.1,3.2-1.5c0.1,0,0.2-0.2,0.3-0.2
				c0,0,0.1,0.1,0.1,0.1c-0.5,0.7-2.2,1.7-3.1,1.9c-0.5,0.1-1-0.3-0.8-0.8L112.4,120.1z M112.4,119.6c0.2-0.1,0.6-0.4,0.4-0.6
				c-0.3-0.5-1.5,0.5-2.2,1.3c-0.7,0.8-0.3,0.8,0.2,0.5C111.3,120.5,112,120,112.4,119.6z"/>
			<path class="st0" d="M118.1,120.8c1.1-0.5,2.5-1.3,2.8-1.3c0.1,0,0.1,0,0.1,0.1c-0.9,0.7-2.1,1.3-3.2,1.7
				c-0.2,0.1-0.4,0.2-0.7,0.1c-0.5,0-0.8-0.3-0.8-0.8c-0.1-1.6,2.5-4.5,3.7-5.3c0.3-0.2,0.5,0.1,0.5,0.4c-0.3,1.1-2.3,3.2-3.7,4.2
				C116.2,121.3,117.1,121.2,118.1,120.8z M117,119.5c0.7-0.4,2.2-2.2,3.1-3.7C119.2,116.3,117.4,118.4,117,119.5z"/>
			<path class="st0" d="M124.3,121.1c-0.5,0-0.7-0.2-1-0.5c-0.1,0.1-1,0.8-1.2,0.9c-0.3,0.2-0.7,0.4-1.1,0c-0.9-0.7,1.4-3.5,2.4-2.7
				c0-0.1,0.1-0.2,0.1-0.2c0.6-1.1,1.4-2.1,2.5-2.9c0.2-0.2,0.5-0.3,0.7-0.4c0.3-0.1,0.7,0.2,0.6,0.5c-0.3,1.5-2.3,3.2-3.4,4.2
				c-0.1,0.1-0.5,0.4-0.4,0.5c0.1,0.4,1,0.3,1.2,0.2c0.6-0.2,3.1-1.1,3.5-1.3c0,0,0,0,0.1,0.1C127.1,120,125.7,121,124.3,121.1z
				 M121.2,121.4c0.6-0.3,1.9-0.9,1.9-1.6c0-0.3,0.1-0.6,0.2-0.8C122.6,118.7,120.8,120.7,121.2,121.4z M123.5,119.8
				c1.1-0.7,3.7-4,3.4-4.2C125.8,116,123.6,118.3,123.5,119.8z"/>
			<path class="st0" d="M130.4,120.1c-0.5,0.4-0.7,0.6-1.2,1c-1.2,0.8-1.7-0.1-0.9-1c0.2-0.2,0.4-0.5,0.7-0.7
				c0.5-0.5,1.1-0.8,1.3-0.8c0.6,0,0.8,0.4,1.1,0.8c-0.3,0.6-0.8,1.1-0.8,1.7c0.6,0.3,2.6-1.1,3.2-1.5c0.1,0,0.2-0.2,0.3-0.2
				c0,0,0.1,0.1,0.1,0.1c-0.5,0.7-2.2,1.7-3.1,1.9c-0.5,0.1-1-0.3-0.8-0.8L130.4,120.1z M130.4,119.6c0.2-0.1,0.6-0.4,0.4-0.6
				c-0.3-0.5-1.5,0.5-2.2,1.3c-0.7,0.8-0.3,0.8,0.2,0.5C129.3,120.5,130,120,130.4,119.6z"/>
			<path class="st0" d="M141.8,122.6L141.8,122.6c-0.2-0.3-0.5-0.2-0.8-0.2c-0.6,0.1-1.4,0.5-2,0.8c-0.2,0.1-0.2,0-0.3-0.2
				c0.8-0.4,1.7-0.7,2.5-0.9c0.2,0,0.3-0.1,0.4-0.3c0.9-1.7,1.6-3.3,2.9-5.2c0.4-0.6,1.1-1.5,1.5-2.1c-1.1,0-3.9,0.6-4.6,1.5
				c-0.2,0.3-0.2,0.6,0.1,0.9c0.4,0.4,1,0.5,1.4,1c-0.3,0-0.7-0.2-1.1-0.4c-0.3-0.1-0.5-0.4-0.7-0.7c-0.2-0.4-0.2-0.6,0.1-1
				c1.2-1.4,6.1-2,7.5-1.6c0.2,0.1,0.2,0.2,0.2,0.5c-0.6-0.2-1.6-0.2-2.2-0.1c-0.6,0.1-4.3,6.4-4.5,7.4c0.9-0.1,2.3-0.3,3.1,0.2
				c0.4,0.3,0.4,0.8,0,1.1l-0.1-0.2c0.1-0.1,0.2-0.3,0.2-0.4c-0.5-0.8-2.7-0.5-3.4-0.3V122.6z"/>
			<path class="st0" d="M149.8,115.4c-0.1,0.2,0,0.3-0.3,0.4s-2.5,4.1-2.6,4.5c0.3-0.1,1.3-1.2,1.7-1.5c0.3-0.2,0.8-0.6,1.1-0.3
				c1,0.8-2.1,3.7-3.1,2.7c-0.5,0.6-0.5,0.9-0.9,1.6l-0.2-0.1l-0.2-0.1c0.7-1.7,2.9-6.3,4.1-7.5
				C149.8,115.1,149.9,115.2,149.8,115.4z M149.6,118.7c-0.8,0.1-2.4,1.8-2.9,2.4C147.8,121.4,149.8,119.3,149.6,118.7z"/>
			<path class="st0" d="M153.1,120.1c-0.5,0.4-0.7,0.6-1.2,1c-1.2,0.8-1.7-0.1-0.9-1c0.2-0.2,0.4-0.5,0.7-0.7
				c0.5-0.5,1.1-0.8,1.3-0.8c0.6,0,0.8,0.4,1.1,0.8c-0.3,0.6-0.8,1.1-0.8,1.7c0.6,0.3,2.6-1.1,3.2-1.5c0.1,0,0.2-0.2,0.3-0.2
				c0,0,0.1,0.1,0.1,0.1c-0.5,0.7-2.2,1.7-3.1,1.9c-0.5,0.1-1-0.3-0.8-0.8L153.1,120.1z M153.1,119.6c0.2-0.1,0.6-0.4,0.4-0.6
				c-0.3-0.5-1.5,0.5-2.2,1.3c-0.7,0.8-0.3,0.8,0.2,0.5C152,120.5,152.7,120,153.1,119.6z"/>
			<path class="st0" d="M161.9,119.6c-1.7,0.9-2.5,1.2-2.3-0.7c-0.9,0-2.2,1.8-2.8,2.4c-0.1-0.1-0.2-0.2-0.3-0.3
				c0.2-0.7,1.2-2.3,1.7-2.6c0.2,0.2,0.2,0.4,0.2,0.6c0.3-0.2,1.3-0.9,1.5,0c0.1,0.7-0.2,1,0.8,0.8c0.5-0.1,0.9-0.3,1.2-0.4
				L161.9,119.6z M157.5,119.9c0.2-0.1,0.7-0.6,0.9-0.7c0,0-0.1-0.1-0.2-0.2C158,119.2,157.6,119.7,157.5,119.9z"/>
			<path class="st0" d="M167.1,119.6c-1.7,0.9-2.5,1.2-2.3-0.7c-0.9,0-2.2,1.8-2.8,2.4c-0.1-0.1-0.2-0.2-0.3-0.3
				c0.2-0.7,1.2-2.3,1.7-2.6c0.2,0.2,0.2,0.4,0.2,0.6c0.3-0.2,1.3-0.9,1.5,0c0.1,0.7-0.2,1,0.8,0.8c0.5-0.1,0.9-0.3,1.2-0.4
				L167.1,119.6z M162.7,119.9c0.2-0.1,0.7-0.6,0.9-0.7c0,0-0.1-0.1-0.2-0.2C163.2,119.2,162.8,119.7,162.7,119.9z"/>
			<path class="st0" d="M169.2,120.1c-0.5,0.4-0.7,0.6-1.2,1c-1.2,0.8-1.7-0.1-0.9-1c0.2-0.2,0.4-0.5,0.7-0.7
				c0.5-0.5,1.1-0.8,1.3-0.8c0.6,0,0.8,0.4,1.1,0.8c-0.3,0.6-0.8,1.1-0.8,1.7c0.6,0.3,2.6-1.1,3.2-1.5c0.1,0,0.2-0.2,0.3-0.2
				c0,0,0.1,0.1,0.1,0.1c-0.5,0.7-2.2,1.7-3.1,1.9c-0.5,0.1-1-0.3-0.8-0.8L169.2,120.1z M169.2,119.6c0.2-0.1,0.6-0.4,0.4-0.6
				c-0.3-0.5-1.5,0.5-2.2,1.3c-0.7,0.8-0.3,0.8,0.2,0.5C168.1,120.5,168.8,120,169.2,119.6z"/>
		</g>
		<g>
			<g>
				<path class="st0" d="M125.2,46.5c-12.8,0-23.2-10.4-23.2-23.2C102,10.4,112.4,0,125.2,0s23.2,10.4,23.2,23.2
					C148.5,36.1,138,46.5,125.2,46.5z M125.2,1.6c-12,0-21.7,9.7-21.7,21.7c0,12,9.7,21.7,21.7,21.7s21.7-9.7,21.7-21.7
					C146.9,11.3,137.2,1.6,125.2,1.6z"/>
			</g>
			<g>
				<g>
					<path class="st0" d="M111.3,27.2v-11h4.4c0.1,0,0.2,0,0.4,0c0.2,0,0.3,0,0.4,0c0.6,0.1,1.1,0.3,1.5,0.6
						c0.4,0.3,0.7,0.7,0.9,1.2c0.2,0.5,0.3,1,0.3,1.6c0,0.6-0.1,1.1-0.3,1.6c-0.2,0.5-0.5,0.9-0.9,1.2c-0.4,0.3-0.9,0.5-1.5,0.6
						c-0.1,0-0.3,0-0.5,0c-0.2,0-0.3,0-0.4,0h-2.8v3.9H111.3z M112.9,21.7h2.8c0.1,0,0.2,0,0.3,0c0.1,0,0.2,0,0.4-0.1
						c0.3-0.1,0.6-0.2,0.8-0.4c0.2-0.2,0.3-0.4,0.4-0.7s0.1-0.5,0.1-0.8c0-0.3,0-0.5-0.1-0.8s-0.2-0.5-0.4-0.7
						c-0.2-0.2-0.5-0.3-0.8-0.4c-0.1,0-0.2-0.1-0.4-0.1s-0.2,0-0.3,0h-2.8V21.7z"/>
					<path class="st0" d="M121.4,27.2v-11h6.5v1.6H123v3.1h4v1.6h-4v4.7H121.4z"/>
					<path class="st0" d="M134.1,27.4c-0.7,0-1.4-0.1-2-0.4c-0.6-0.3-1.2-0.6-1.6-1.1c-0.5-0.5-0.8-1.1-1.1-1.8
						c-0.3-0.7-0.4-1.5-0.4-2.4c0-1.2,0.2-2.2,0.6-3c0.4-0.8,1-1.5,1.8-2c0.8-0.5,1.6-0.7,2.6-0.7c1.3,0,2.3,0.3,3.1,0.9
						c0.8,0.6,1.3,1.4,1.6,2.5l-1.6,0.3c-0.2-0.7-0.6-1.2-1.1-1.6c-0.5-0.4-1.1-0.6-1.9-0.6c-0.8,0-1.4,0.2-1.9,0.5
						c-0.5,0.3-0.9,0.8-1.2,1.5c-0.3,0.6-0.4,1.4-0.4,2.2c0,0.8,0.1,1.6,0.4,2.2c0.3,0.6,0.6,1.1,1.2,1.5c0.5,0.3,1.2,0.5,1.9,0.5
						c0.6,0,1.2-0.1,1.6-0.3c0.4-0.2,0.8-0.6,1.1-1.1c0.3-0.5,0.4-1,0.5-1.7h-2.1v-1.3h3.8c0,0.1,0,0.2,0,0.4c0,0.1,0,0.2,0,0.3
						c0,1-0.2,1.9-0.6,2.7c-0.4,0.8-1,1.4-1.7,1.9C136.1,27.2,135.2,27.4,134.1,27.4z"/>
					<path class="st0" d="M113.1,31v-0.3h0.2V31H113.1z M113.1,33.1v-1.8h0.2v1.8H113.1z"/>
					<path class="st0" d="M114,33.1v-1.8h0.2v0.4h0v1.3H114z M115.3,33.1v-0.9c0-0.1,0-0.2,0-0.3c0-0.1,0-0.2-0.1-0.2
						c0-0.1-0.1-0.1-0.2-0.1c-0.1,0-0.1-0.1-0.2-0.1c-0.1,0-0.2,0-0.2,0c-0.1,0-0.1,0.1-0.2,0.1c0,0.1-0.1,0.1-0.1,0.2
						c0,0.1,0,0.2,0,0.3l-0.2,0c0-0.2,0-0.3,0.1-0.5c0.1-0.1,0.1-0.2,0.3-0.3c0.1-0.1,0.2-0.1,0.4-0.1c0.1,0,0.2,0,0.3,0
						s0.1,0.1,0.2,0.1c0.1,0.1,0.1,0.1,0.1,0.2c0,0.1,0.1,0.1,0.1,0.2c0,0.1,0,0.2,0,0.2v1H115.3z"/>
					<path class="st0" d="M116,31.5v-0.2h1.2v0.2H116z M117.1,33.1c-0.1,0-0.2,0-0.3,0c-0.1,0-0.2,0-0.3-0.1c-0.1,0-0.1-0.1-0.2-0.2
						c0-0.1,0-0.1-0.1-0.2c0-0.1,0-0.1,0-0.2v-1.6h0.2v1.6c0,0.1,0,0.1,0,0.2c0,0,0,0.1,0,0.1c0,0.1,0.1,0.1,0.2,0.1
						c0.1,0,0.2,0,0.3,0V33.1z"/>
					<path class="st0" d="M118.4,33.1c-0.2,0-0.3,0-0.4-0.1c-0.1-0.1-0.2-0.2-0.3-0.3c-0.1-0.1-0.1-0.3-0.1-0.5c0-0.2,0-0.4,0.1-0.5
						c0.1-0.1,0.2-0.2,0.3-0.3c0.1-0.1,0.3-0.1,0.4-0.1c0.2,0,0.3,0,0.4,0.1c0.1,0.1,0.2,0.2,0.3,0.3c0.1,0.1,0.1,0.3,0.1,0.5h-0.2
						v-0.1c0-0.2-0.1-0.4-0.1-0.5c-0.1-0.1-0.2-0.2-0.4-0.2c-0.2,0-0.3,0.1-0.4,0.2c-0.1,0.1-0.2,0.3-0.2,0.5c0,0.2,0.1,0.4,0.2,0.5
						c0.1,0.1,0.2,0.2,0.4,0.2c0.1,0,0.2,0,0.3-0.1c0.1-0.1,0.2-0.1,0.2-0.3l0.2,0.1c-0.1,0.2-0.2,0.3-0.3,0.4
						C118.7,33.1,118.5,33.1,118.4,33.1z M117.7,32.3v-0.2h1.3v0.2H117.7z"/>
					<path class="st0" d="M119.8,33.1v-1.8h0.2v0.4l0-0.1c0-0.1,0-0.1,0.1-0.1c0,0,0.1-0.1,0.1-0.1c0,0,0.1-0.1,0.2-0.1
						c0.1,0,0.1,0,0.2,0c0.1,0,0.1,0,0.2,0v0.2c-0.1,0-0.1,0-0.2,0c-0.1,0-0.1,0-0.2,0.1c-0.1,0-0.1,0.1-0.1,0.2
						c0,0.1,0,0.1-0.1,0.2c0,0.1,0,0.1,0,0.2v0.9H119.8z"/>
					<path class="st0" d="M121.2,31v-0.3h0.2V31H121.2z M121.2,33.1v-1.8h0.2v1.8H121.2z"/>
					<path class="st0" d="M122.9,33.1c-0.2,0-0.3,0-0.4-0.1c-0.1-0.1-0.2-0.2-0.3-0.3c-0.1-0.1-0.1-0.3-0.1-0.5c0-0.2,0-0.3,0.1-0.5
						c0.1-0.1,0.2-0.2,0.3-0.3c0.1-0.1,0.3-0.1,0.4-0.1c0.2,0,0.3,0,0.4,0.1c0.1,0.1,0.2,0.2,0.3,0.3c0.1,0.1,0.1,0.3,0.1,0.5
						c0,0.2,0,0.3-0.1,0.5c-0.1,0.1-0.2,0.2-0.3,0.3C123.2,33.1,123.1,33.1,122.9,33.1z M122.9,32.9c0.2,0,0.3-0.1,0.4-0.2
						c0.1-0.1,0.1-0.3,0.1-0.5c0-0.2,0-0.4-0.1-0.5c-0.1-0.1-0.2-0.2-0.4-0.2c-0.1,0-0.2,0-0.3,0.1c-0.1,0.1-0.1,0.1-0.2,0.2
						c0,0.1-0.1,0.2-0.1,0.4c0,0.2,0,0.4,0.1,0.5C122.5,32.8,122.7,32.9,122.9,32.9z"/>
					<path class="st0" d="M124.3,33.1v-1.8h0.2v0.4l0-0.1c0-0.1,0-0.1,0.1-0.1c0,0,0.1-0.1,0.1-0.1c0,0,0.1-0.1,0.2-0.1
						c0.1,0,0.1,0,0.2,0c0.1,0,0.1,0,0.2,0v0.2c-0.1,0-0.1,0-0.2,0c-0.1,0-0.1,0-0.2,0.1c-0.1,0-0.1,0.1-0.1,0.2
						c0,0.1,0,0.1-0.1,0.2c0,0.1,0,0.1,0,0.2v0.9H124.3z"/>
					<path class="st0" d="M127.2,33.1c-0.2,0-0.4,0-0.5-0.1c-0.1-0.1-0.2-0.2-0.2-0.4l0.2,0c0,0.1,0.1,0.2,0.2,0.2
						c0.1,0.1,0.2,0.1,0.3,0.1c0.1,0,0.2,0,0.3-0.1c0.1-0.1,0.1-0.1,0.1-0.2c0-0.1,0-0.1,0-0.1c0,0-0.1-0.1-0.1-0.1
						c-0.1,0-0.2-0.1-0.3-0.1c-0.2,0-0.3-0.1-0.4-0.1c-0.1,0-0.2-0.1-0.2-0.2c0-0.1-0.1-0.1-0.1-0.2c0-0.1,0-0.2,0.1-0.3
						c0.1-0.1,0.1-0.1,0.2-0.2c0.1,0,0.2-0.1,0.3-0.1c0.1,0,0.3,0,0.4,0.1c0.1,0,0.2,0.1,0.3,0.2c0.1,0.1,0.1,0.2,0.1,0.3l-0.2,0
						c0-0.1-0.1-0.2-0.2-0.2c-0.1-0.1-0.2-0.1-0.3-0.1c-0.1,0-0.2,0-0.3,0.1s-0.1,0.1-0.1,0.2c0,0,0,0.1,0,0.1c0,0,0.1,0.1,0.2,0.1
						c0.1,0,0.2,0.1,0.3,0.1c0.2,0,0.3,0.1,0.4,0.1c0.1,0,0.2,0.1,0.2,0.2c0,0.1,0.1,0.1,0.1,0.2c0,0.2-0.1,0.3-0.2,0.4
						C127.6,33.1,127.4,33.1,127.2,33.1z"/>
					<path class="st0" d="M128.3,31.5v-0.2h1.2v0.2H128.3z M129.5,33.1c-0.1,0-0.2,0-0.3,0c-0.1,0-0.2,0-0.3-0.1
						c-0.1,0-0.1-0.1-0.2-0.2c0-0.1,0-0.1-0.1-0.2c0-0.1,0-0.1,0-0.2v-1.6h0.2v1.6c0,0.1,0,0.1,0,0.2c0,0,0,0.1,0,0.1
						c0,0.1,0.1,0.1,0.2,0.1c0.1,0,0.2,0,0.3,0V33.1z"/>
					<path class="st0" d="M130.7,33.1c-0.1,0-0.2,0-0.3,0c-0.1,0-0.1-0.1-0.2-0.1c-0.1-0.1-0.1-0.1-0.1-0.2c0-0.1-0.1-0.1-0.1-0.2
						c0-0.1,0-0.2,0-0.2v-1h0.2v0.9c0,0.1,0,0.2,0,0.3c0,0.1,0,0.2,0.1,0.2c0,0.1,0.1,0.1,0.2,0.1c0.1,0,0.1,0.1,0.2,0.1
						c0.1,0,0.2,0,0.2,0c0.1,0,0.1-0.1,0.2-0.1c0-0.1,0.1-0.1,0.1-0.2c0-0.1,0-0.2,0-0.3l0.2,0c0,0.2,0,0.3-0.1,0.5
						c-0.1,0.1-0.1,0.2-0.3,0.3C131,33.1,130.8,33.1,130.7,33.1z M131.3,33.1v-0.4h0v-1.3h0.2v1.8H131.3z"/>
					<path class="st0" d="M132.9,33.1c-0.2,0-0.3,0-0.4-0.1c-0.1-0.1-0.2-0.2-0.3-0.3c-0.1-0.1-0.1-0.3-0.1-0.5c0-0.2,0-0.3,0.1-0.5
						c0.1-0.1,0.1-0.3,0.3-0.3c0.1-0.1,0.3-0.1,0.4-0.1c0.2,0,0.3,0,0.4,0.1c0.1,0.1,0.2,0.2,0.3,0.3s0.1,0.3,0.1,0.5
						c0,0.2,0,0.3-0.1,0.5s-0.1,0.3-0.3,0.3C133.2,33.1,133,33.1,132.9,33.1z M132.9,32.9c0.1,0,0.2,0,0.3-0.1
						c0.1-0.1,0.1-0.1,0.2-0.3c0-0.1,0.1-0.2,0.1-0.4c0-0.1,0-0.3-0.1-0.4c0-0.1-0.1-0.2-0.2-0.2c-0.1-0.1-0.2-0.1-0.3-0.1
						c-0.1,0-0.2,0-0.3,0.1c-0.1,0.1-0.1,0.1-0.2,0.3c0,0.1-0.1,0.2-0.1,0.4c0,0.1,0,0.3,0.1,0.4c0,0.1,0.1,0.2,0.2,0.3
						C132.7,32.9,132.8,32.9,132.9,32.9z M133.5,33.1v-1.3h0v-1h0.2v2.3H133.5z"/>
					<path class="st0" d="M134.4,31v-0.3h0.2V31H134.4z M134.4,33.1v-1.8h0.2v1.8H134.4z"/>
					<path class="st0" d="M136.1,33.1c-0.2,0-0.3,0-0.4-0.1c-0.1-0.1-0.2-0.2-0.3-0.3c-0.1-0.1-0.1-0.3-0.1-0.5c0-0.2,0-0.3,0.1-0.5
						c0.1-0.1,0.2-0.2,0.3-0.3c0.1-0.1,0.3-0.1,0.4-0.1c0.2,0,0.3,0,0.4,0.1c0.1,0.1,0.2,0.2,0.3,0.3c0.1,0.1,0.1,0.3,0.1,0.5
						c0,0.2,0,0.3-0.1,0.5c-0.1,0.1-0.2,0.2-0.3,0.3C136.4,33.1,136.2,33.1,136.1,33.1z M136.1,32.9c0.2,0,0.3-0.1,0.4-0.2
						c0.1-0.1,0.1-0.3,0.1-0.5c0-0.2,0-0.4-0.1-0.5c-0.1-0.1-0.2-0.2-0.4-0.2c-0.1,0-0.2,0-0.3,0.1c-0.1,0.1-0.1,0.1-0.2,0.2
						c0,0.1-0.1,0.2-0.1,0.4c0,0.2,0,0.4,0.1,0.5C135.7,32.8,135.9,32.9,136.1,32.9z"/>
				</g>
			</g>
		</g>
	</g>
</g>
</svg>
